%TF.GenerationSoftware,KiCad,Pcbnew,8.0.4*%
%TF.CreationDate,2024-09-25T00:08:57+05:30*%
%TF.ProjectId,NYSM.2_TMC2209_Stepper_driver,4e59534d-2e32-45f5-944d-43323230395f,rev?*%
%TF.SameCoordinates,Original*%
%TF.FileFunction,Copper,L2,Bot*%
%TF.FilePolarity,Positive*%
%FSLAX46Y46*%
G04 Gerber Fmt 4.6, Leading zero omitted, Abs format (unit mm)*
G04 Created by KiCad (PCBNEW 8.0.4) date 2024-09-25 00:08:57*
%MOMM*%
%LPD*%
G01*
G04 APERTURE LIST*
G04 Aperture macros list*
%AMRoundRect*
0 Rectangle with rounded corners*
0 $1 Rounding radius*
0 $2 $3 $4 $5 $6 $7 $8 $9 X,Y pos of 4 corners*
0 Add a 4 corners polygon primitive as box body*
4,1,4,$2,$3,$4,$5,$6,$7,$8,$9,$2,$3,0*
0 Add four circle primitives for the rounded corners*
1,1,$1+$1,$2,$3*
1,1,$1+$1,$4,$5*
1,1,$1+$1,$6,$7*
1,1,$1+$1,$8,$9*
0 Add four rect primitives between the rounded corners*
20,1,$1+$1,$2,$3,$4,$5,0*
20,1,$1+$1,$4,$5,$6,$7,0*
20,1,$1+$1,$6,$7,$8,$9,0*
20,1,$1+$1,$8,$9,$2,$3,0*%
G04 Aperture macros list end*
%TA.AperFunction,SMDPad,CuDef*%
%ADD10R,0.757199X0.254800*%
%TD*%
%TA.AperFunction,SMDPad,CuDef*%
%ADD11R,0.254800X0.757199*%
%TD*%
%TA.AperFunction,SMDPad,CuDef*%
%ADD12R,3.750000X3.750000*%
%TD*%
%TA.AperFunction,ComponentPad*%
%ADD13C,5.500000*%
%TD*%
%TA.AperFunction,SMDPad,CuDef*%
%ADD14R,0.350000X2.500000*%
%TD*%
%TA.AperFunction,SMDPad,CuDef*%
%ADD15RoundRect,0.135000X-0.135000X-0.185000X0.135000X-0.185000X0.135000X0.185000X-0.135000X0.185000X0*%
%TD*%
%TA.AperFunction,SMDPad,CuDef*%
%ADD16RoundRect,0.140000X-0.170000X0.140000X-0.170000X-0.140000X0.170000X-0.140000X0.170000X0.140000X0*%
%TD*%
%TA.AperFunction,SMDPad,CuDef*%
%ADD17RoundRect,0.140000X0.140000X0.170000X-0.140000X0.170000X-0.140000X-0.170000X0.140000X-0.170000X0*%
%TD*%
%TA.AperFunction,SMDPad,CuDef*%
%ADD18RoundRect,0.135000X0.185000X-0.135000X0.185000X0.135000X-0.185000X0.135000X-0.185000X-0.135000X0*%
%TD*%
%TA.AperFunction,SMDPad,CuDef*%
%ADD19RoundRect,0.135000X-0.185000X0.135000X-0.185000X-0.135000X0.185000X-0.135000X0.185000X0.135000X0*%
%TD*%
%TA.AperFunction,SMDPad,CuDef*%
%ADD20RoundRect,0.135000X0.135000X0.185000X-0.135000X0.185000X-0.135000X-0.185000X0.135000X-0.185000X0*%
%TD*%
%TA.AperFunction,SMDPad,CuDef*%
%ADD21R,1.000000X1.500000*%
%TD*%
%TA.AperFunction,SMDPad,CuDef*%
%ADD22R,1.200000X1.200000*%
%TD*%
%TA.AperFunction,SMDPad,CuDef*%
%ADD23R,1.600000X1.500000*%
%TD*%
%TA.AperFunction,ViaPad*%
%ADD24C,0.650000*%
%TD*%
%TA.AperFunction,ViaPad*%
%ADD25C,0.600000*%
%TD*%
%TA.AperFunction,Conductor*%
%ADD26C,0.150000*%
%TD*%
%TA.AperFunction,Conductor*%
%ADD27C,0.200000*%
%TD*%
G04 APERTURE END LIST*
D10*
%TO.P,U1,1,OB2*%
%TO.N,B2*%
X142422600Y-119076600D03*
%TO.P,U1,2,ENN*%
%TO.N,EN*%
X142422600Y-118576601D03*
%TO.P,U1,3,GND*%
%TO.N,GND*%
X142422600Y-118076599D03*
%TO.P,U1,4,CPO*%
%TO.N,Net-(U1-CPO)*%
X142422600Y-117576600D03*
%TO.P,U1,5,CPI*%
%TO.N,Net-(U1-CPI)*%
X142422600Y-117076601D03*
%TO.P,U1,6,VCP*%
%TO.N,Net-(U1-VCP)*%
X142422600Y-116576599D03*
%TO.P,U1,7,SPREAD*%
%TO.N,SPREAD*%
X142422600Y-116076600D03*
D11*
%TO.P,U1,8,5VOUT*%
%TO.N,5V_OUT*%
X143345900Y-115153300D03*
%TO.P,U1,9,MS1_AD0*%
%TO.N,MS1*%
X143845899Y-115153300D03*
%TO.P,U1,10,MS2_AD1*%
%TO.N,MS2*%
X144345901Y-115153300D03*
%TO.P,U1,11,DIAG*%
%TO.N,DIAG*%
X144845900Y-115153300D03*
%TO.P,U1,12,INDEX*%
%TO.N,INDEX*%
X145345899Y-115153300D03*
%TO.P,U1,13,CLK*%
%TO.N,CLK*%
X145845901Y-115153300D03*
%TO.P,U1,14,PDN_UART*%
%TO.N,UART_RX*%
X146345900Y-115153300D03*
D10*
%TO.P,U1,15,VCC_IO*%
%TO.N,VCC_IO*%
X147269200Y-116076600D03*
%TO.P,U1,16,STEP*%
%TO.N,STEP*%
X147269200Y-116576599D03*
%TO.P,U1,17,VREF*%
%TO.N,__VREF__*%
X147269200Y-117076601D03*
%TO.P,U1,18,GND*%
%TO.N,GND*%
X147269200Y-117576600D03*
%TO.P,U1,19,DIR*%
%TO.N,DIR*%
X147269200Y-118076599D03*
%TO.P,U1,20,STDBY*%
%TO.N,STDBY*%
X147269200Y-118576601D03*
%TO.P,U1,21,OA2*%
%TO.N,A2*%
X147269200Y-119076600D03*
D11*
%TO.P,U1,22,VS*%
%TO.N,POW_MOT*%
X146345900Y-119999900D03*
%TO.P,U1,23,BRA*%
%TO.N,GND*%
X145845901Y-119999900D03*
%TO.P,U1,24,OA1*%
%TO.N,A1*%
X145345899Y-119999900D03*
%TO.P,U1,25,NC*%
%TO.N,unconnected-(U1-NC-Pad25)*%
X144845900Y-119999900D03*
%TO.P,U1,26,OB1*%
%TO.N,B1*%
X144345901Y-119999900D03*
%TO.P,U1,27,BRB*%
%TO.N,GND*%
X143845899Y-119999900D03*
%TO.P,U1,28,VS*%
%TO.N,POW_MOT*%
X143345900Y-119999900D03*
D12*
%TO.P,U1,29,GND*%
%TO.N,GND*%
X144845900Y-117576600D03*
%TD*%
D13*
%TO.P,U2,MOUNTING-HOLE,MP1*%
%TO.N,unconnected-(U2-MP1-PadMOUNTING-HOLE)*%
X144780000Y-102400000D03*
D14*
%TO.P,U2,P$2,2*%
%TO.N,unconnected-(U2-2-PadP$2)*%
X153780000Y-129650000D03*
%TO.P,U2,P$4,4*%
%TO.N,A2*%
X153280000Y-129650000D03*
%TO.P,U2,P$6,6*%
X152780000Y-129650000D03*
%TO.P,U2,P$8,8*%
X152280000Y-129650000D03*
%TO.P,U2,P$10,10*%
X151780000Y-129650000D03*
%TO.P,U2,P$20,20*%
X149280000Y-129650000D03*
%TO.P,U2,P$22,22*%
X148780000Y-129650000D03*
%TO.P,U2,P$24,24*%
X148280000Y-129650000D03*
%TO.P,U2,P$26,26*%
X147780000Y-129650000D03*
%TO.P,U2,P$28,28*%
%TO.N,A1*%
X147280000Y-129650000D03*
%TO.P,U2,P$30,30*%
X146780000Y-129650000D03*
%TO.P,U2,P$32,32*%
X146280000Y-129650000D03*
%TO.P,U2,P$34,34*%
X145780000Y-129650000D03*
%TO.P,U2,P$36,36*%
X145280000Y-129650000D03*
%TO.P,U2,P$38,38*%
X144780000Y-129650000D03*
%TO.P,U2,P$40,40*%
X144280000Y-129650000D03*
%TO.P,U2,P$42,42*%
X143780000Y-129650000D03*
%TO.P,U2,P$44,44*%
%TO.N,B1*%
X143280000Y-129650000D03*
%TO.P,U2,P$46,46*%
X142780000Y-129650000D03*
%TO.P,U2,P$48,48*%
X142280000Y-129650000D03*
%TO.P,U2,P$50,50*%
X141780000Y-129650000D03*
%TO.P,U2,P$52,52*%
X141280000Y-129650000D03*
%TO.P,U2,P$54,54*%
X140780000Y-129650000D03*
%TO.P,U2,P$56,56*%
X140280000Y-129650000D03*
%TO.P,U2,P$58,58*%
X139780000Y-129650000D03*
%TO.P,U2,P$60,60*%
%TO.N,B2*%
X139280000Y-129650000D03*
%TO.P,U2,P$62,62*%
X138780000Y-129650000D03*
%TO.P,U2,P$64,64*%
X138280000Y-129650000D03*
%TO.P,U2,P$66,66*%
X137780000Y-129650000D03*
%TO.P,U2,P$68,68*%
X137280000Y-129650000D03*
%TO.P,U2,P$70,70*%
X136780000Y-129650000D03*
%TO.P,U2,P$72,72*%
X136280000Y-129650000D03*
%TO.P,U2,P$74,74*%
X135780000Y-129650000D03*
%TD*%
D15*
%TO.P,R9,1*%
%TO.N,GND*%
X138751400Y-113279200D03*
%TO.P,R9,2*%
%TO.N,SPREAD*%
X139771400Y-113279200D03*
%TD*%
D16*
%TO.P,C9,1*%
%TO.N,POW_MOT*%
X140161400Y-123069200D03*
%TO.P,C9,2*%
%TO.N,GND*%
X140161400Y-124029200D03*
%TD*%
D17*
%TO.P,C1,1*%
%TO.N,Net-(U1-CPO)*%
X139741400Y-116609200D03*
%TO.P,C1,2*%
%TO.N,Net-(U1-CPI)*%
X138781400Y-116609200D03*
%TD*%
D18*
%TO.P,R6,1*%
%TO.N,5V_OUT*%
X144351400Y-109369200D03*
%TO.P,R6,2*%
%TO.N,Net-(R6-Pad2)*%
X144351400Y-108349200D03*
%TD*%
D16*
%TO.P,C10,1*%
%TO.N,POW_MOT*%
X139041400Y-123059200D03*
%TO.P,C10,2*%
%TO.N,GND*%
X139041400Y-124019200D03*
%TD*%
D15*
%TO.P,R1,1*%
%TO.N,VCC_IO*%
X138751400Y-118299200D03*
%TO.P,R1,2*%
%TO.N,EN*%
X139771400Y-118299200D03*
%TD*%
D19*
%TO.P,R2,1*%
%TO.N,GND*%
X145391400Y-108339200D03*
%TO.P,R2,2*%
%TO.N,CLK*%
X145391400Y-109359200D03*
%TD*%
D20*
%TO.P,R8,1*%
%TO.N,SPREAD*%
X139751400Y-114289200D03*
%TO.P,R8,2*%
%TO.N,VCC_IO*%
X138731400Y-114289200D03*
%TD*%
D19*
%TO.P,R3,1*%
%TO.N,UART_TX*%
X146501400Y-108349200D03*
%TO.P,R3,2*%
%TO.N,UART_RX*%
X146501400Y-109369200D03*
%TD*%
D16*
%TO.P,C8,1*%
%TO.N,POW_MOT*%
X141291400Y-123069200D03*
%TO.P,C8,2*%
%TO.N,GND*%
X141291400Y-124029200D03*
%TD*%
D20*
%TO.P,R7,1*%
%TO.N,GND*%
X154461400Y-118229200D03*
%TO.P,R7,2*%
%TO.N,STDBY*%
X153441400Y-118229200D03*
%TD*%
D16*
%TO.P,C7,1*%
%TO.N,GND*%
X143311400Y-108399200D03*
%TO.P,C7,2*%
%TO.N,5V_OUT*%
X143311400Y-109359200D03*
%TD*%
D17*
%TO.P,C2,1*%
%TO.N,Net-(U1-VCP)*%
X139751400Y-115319200D03*
%TO.P,C2,2*%
%TO.N,POW_MOT*%
X138791400Y-115319200D03*
%TD*%
D21*
%TO.P,JP1,1,A*%
%TO.N,Net-(JP1-A)*%
X153921400Y-113429200D03*
%TO.P,JP1,2,B*%
%TO.N,__VREF__*%
X152621400Y-113429200D03*
%TD*%
D16*
%TO.P,C6,1*%
%TO.N,GND*%
X149241400Y-113469200D03*
%TO.P,C6,2*%
%TO.N,VCC_IO*%
X149241400Y-114429200D03*
%TD*%
D22*
%TO.P,RV1,3,3*%
%TO.N,Net-(R6-Pad2)*%
X153341400Y-105199200D03*
D23*
%TO.P,RV1,2,2*%
%TO.N,Net-(JP1-A)*%
X152341400Y-108449200D03*
D22*
%TO.P,RV1,1,1*%
%TO.N,GND*%
X151341400Y-105199200D03*
%TD*%
D24*
%TO.N,GND*%
X151891400Y-106449200D03*
X150091400Y-106349200D03*
X149891400Y-122299200D03*
%TO.N,POW_MOT*%
X148091400Y-124149200D03*
D25*
X138431400Y-121509200D03*
X137266400Y-116749200D03*
X138431400Y-122349200D03*
X137601400Y-122319200D03*
X138031400Y-123079200D03*
D24*
X147291400Y-124149200D03*
X148891400Y-124149200D03*
D25*
X137601400Y-121509200D03*
%TO.N,VCC_IO*%
X147681400Y-111239200D03*
X139127087Y-110543513D03*
X151091400Y-112549200D03*
X142591400Y-111884200D03*
X137901400Y-118149200D03*
%TO.N,GND*%
X140191400Y-108349200D03*
X147291400Y-112849200D03*
X141041400Y-126419200D03*
X147891400Y-104949200D03*
X142541400Y-126379200D03*
D24*
X145191400Y-116349200D03*
D25*
X154891400Y-104449200D03*
X142501400Y-110929200D03*
X137541400Y-124199200D03*
D24*
X143591400Y-118749200D03*
X145991400Y-116349200D03*
D25*
X142091400Y-114749200D03*
D24*
X145191400Y-117149200D03*
D25*
X134891400Y-116749200D03*
X147591400Y-114549200D03*
X135691400Y-105649200D03*
X141711400Y-127039200D03*
D24*
X135991400Y-116999200D03*
D25*
X139791400Y-105949200D03*
X134891400Y-118199200D03*
X147054999Y-127872455D03*
X137541400Y-124999200D03*
X140991400Y-112849200D03*
X142391400Y-109249200D03*
X154791400Y-105849200D03*
D24*
X145191400Y-117949200D03*
D25*
X136991400Y-107249200D03*
X137591400Y-105749200D03*
D24*
X136041400Y-118149200D03*
D25*
X136191400Y-110249200D03*
X140291400Y-127029200D03*
X140624677Y-118001601D03*
D24*
X144391400Y-118749200D03*
D25*
X152211400Y-116189200D03*
X148291400Y-112849200D03*
D24*
X145991400Y-117149200D03*
D25*
X141291400Y-113849200D03*
D24*
X144391400Y-117949200D03*
D25*
X137491400Y-108549200D03*
X135691400Y-108549200D03*
D24*
X136091400Y-114999200D03*
X145991400Y-117949200D03*
D25*
X148271400Y-113859200D03*
X135091400Y-111849200D03*
D24*
X144391400Y-117149200D03*
X143591400Y-116349200D03*
D25*
X142291400Y-113849200D03*
D24*
X143591400Y-117149200D03*
D25*
X141491400Y-110849200D03*
X137491400Y-125799200D03*
D24*
X143591400Y-117949200D03*
X145991400Y-118749200D03*
D25*
X139041400Y-112599200D03*
D24*
X145191400Y-118749200D03*
D25*
X135691400Y-113279200D03*
D24*
X144391400Y-116349200D03*
D25*
X141791400Y-105939200D03*
X142291400Y-112849200D03*
X141791400Y-109949200D03*
X149271400Y-117299200D03*
X134891400Y-115049200D03*
%TO.N,EN*%
X139051400Y-117449200D03*
%TO.N,CLK*%
X145771400Y-109969200D03*
%TO.N,STDBY*%
X150381400Y-118189200D03*
%TO.N,SPREAD*%
X138561400Y-111109200D03*
X149662242Y-123502011D03*
X147571400Y-125399200D03*
%TO.N,DIAG*%
X145241400Y-110629200D03*
%TO.N,MS1*%
X143801400Y-111309200D03*
%TO.N,DIR*%
X152291400Y-115229200D03*
%TO.N,STEP*%
X151386400Y-113449200D03*
%TO.N,MS2*%
X144321400Y-110609200D03*
%TO.N,INDEX*%
X147096400Y-126094965D03*
X145511400Y-111889200D03*
X149991400Y-124799200D03*
%TO.N,__VREF__*%
X150971400Y-114861688D03*
%TO.N,UART_TX*%
X147701400Y-108289200D03*
%TO.N,UART_RX*%
X147701400Y-109089203D03*
%TD*%
D26*
%TO.N,Net-(JP1-A)*%
X152341400Y-111499200D02*
X152341400Y-108449200D01*
X153921400Y-113429200D02*
X153921400Y-113079200D01*
X153921400Y-113079200D02*
X152341400Y-111499200D01*
%TO.N,VCC_IO*%
X149241400Y-114399200D02*
X149241400Y-114429200D01*
X151091400Y-112549200D02*
X149241400Y-114399200D01*
X147269200Y-116076600D02*
X148564000Y-116076600D01*
X148564000Y-116076600D02*
X149241400Y-115399200D01*
X149241400Y-115399200D02*
X149241400Y-114429200D01*
%TO.N,Net-(U1-CPO)*%
X140051400Y-116609200D02*
X139741400Y-116609200D01*
X141018800Y-117576600D02*
X140051400Y-116609200D01*
X142422600Y-117576600D02*
X141018800Y-117576600D01*
%TO.N,SPREAD*%
X141518800Y-116076600D02*
X139751400Y-114309200D01*
X142422600Y-116076600D02*
X141518800Y-116076600D01*
X139751400Y-114309200D02*
X139751400Y-114289200D01*
%TO.N,VCC_IO*%
X150231400Y-111239200D02*
X147681400Y-111239200D01*
X151091400Y-112099200D02*
X150231400Y-111239200D01*
X151091400Y-112549200D02*
X151091400Y-112099200D01*
%TO.N,CLK*%
X145391400Y-109589200D02*
X145391400Y-109359200D01*
X145771400Y-109969200D02*
X145391400Y-109589200D01*
X145845901Y-114597300D02*
X145845901Y-115153300D01*
X146261400Y-114181801D02*
X145845901Y-114597300D01*
X146261400Y-110809200D02*
X146261400Y-114181801D01*
X145771400Y-110319200D02*
X146261400Y-110809200D01*
X145771400Y-109969200D02*
X145771400Y-110319200D01*
%TO.N,STEP*%
X148514026Y-116576599D02*
X147269200Y-116576599D01*
X149791400Y-115299225D02*
X148514026Y-116576599D01*
X149791400Y-114349200D02*
X149791400Y-115299225D01*
X151386400Y-113449200D02*
X150691400Y-113449200D01*
X150691400Y-113449200D02*
X149791400Y-114349200D01*
%TO.N,5V_OUT*%
X143171400Y-109499200D02*
X143311400Y-109359200D01*
X143321400Y-111949200D02*
X143171400Y-111799200D01*
X143321400Y-115128800D02*
X143321400Y-111949200D01*
X143345900Y-115153300D02*
X143321400Y-115128800D01*
X143171400Y-111799200D02*
X143171400Y-109499200D01*
%TO.N,VCC_IO*%
X140926400Y-111884200D02*
X139585713Y-110543513D01*
X142591400Y-111884200D02*
X140926400Y-111884200D01*
X139585713Y-110543513D02*
X139127087Y-110543513D01*
%TO.N,GND*%
X138751400Y-112889200D02*
X138751400Y-113279200D01*
X139041400Y-112599200D02*
X138751400Y-112889200D01*
%TO.N,SPREAD*%
X147871400Y-125099200D02*
X147571400Y-125399200D01*
X149662242Y-124378358D02*
X148941400Y-125099200D01*
X149662242Y-123502011D02*
X149662242Y-124378358D01*
X148941400Y-125099200D02*
X147871400Y-125099200D01*
%TO.N,GND*%
X147054999Y-127872455D02*
X147105000Y-127822454D01*
X149891400Y-122749200D02*
X149891400Y-122299200D01*
X150291400Y-123149200D02*
X149891400Y-122749200D01*
X150291400Y-124099200D02*
X150291400Y-123149200D01*
X150641400Y-124449200D02*
X150291400Y-124099200D01*
X149791400Y-125849200D02*
X150641400Y-124999200D01*
X148541400Y-125849200D02*
X149791400Y-125849200D01*
X150641400Y-124999200D02*
X150641400Y-124449200D01*
X147054999Y-127335601D02*
X148541400Y-125849200D01*
X147054999Y-127872455D02*
X147054999Y-127335601D01*
%TO.N,INDEX*%
X147745635Y-126094965D02*
X147096400Y-126094965D01*
X148441400Y-125399200D02*
X147745635Y-126094965D01*
X149391400Y-125399200D02*
X148441400Y-125399200D01*
X149991400Y-124799200D02*
X149391400Y-125399200D01*
D27*
%TO.N,GND*%
X145845901Y-119403701D02*
X145191400Y-118749200D01*
X145845901Y-119999900D02*
X145845901Y-119403701D01*
X143845899Y-118576601D02*
X144845900Y-117576600D01*
X143845899Y-119999900D02*
X143845899Y-118576601D01*
D26*
%TO.N,Net-(U1-CPI)*%
X139366400Y-116024200D02*
X138781400Y-116609200D01*
X140057180Y-116024200D02*
X139366400Y-116024200D01*
X142422600Y-117076601D02*
X141109581Y-117076601D01*
X141109581Y-117076601D02*
X140057180Y-116024200D01*
%TO.N,POW_MOT*%
X137266400Y-116749200D02*
X138696400Y-115319200D01*
X138696400Y-115319200D02*
X138791400Y-115319200D01*
%TO.N,VCC_IO*%
X138751400Y-118299200D02*
X138051400Y-118299200D01*
X138051400Y-118299200D02*
X137901400Y-118149200D01*
%TO.N,GND*%
X146641400Y-107089200D02*
X148281400Y-107089200D01*
X148281400Y-107089200D02*
X150401400Y-104969200D01*
X140699675Y-118076599D02*
X142422600Y-118076599D01*
X149241400Y-113469200D02*
X148661400Y-113469200D01*
X145391400Y-108339200D02*
X146641400Y-107089200D01*
X148661400Y-113469200D02*
X148271400Y-113859200D01*
X149081400Y-117489200D02*
X147356600Y-117489200D01*
X147356600Y-117489200D02*
X147269200Y-117576600D01*
X149271400Y-117299200D02*
X149081400Y-117489200D01*
X154461400Y-118229200D02*
X154461400Y-117249200D01*
X153401400Y-116189200D02*
X152211400Y-116189200D01*
X150401400Y-104969200D02*
X151321400Y-104969200D01*
X140624677Y-118001601D02*
X140699675Y-118076599D01*
X154461400Y-117249200D02*
X153401400Y-116189200D01*
%TO.N,5V_OUT*%
X144341400Y-109359200D02*
X144351400Y-109369200D01*
X143311400Y-109359200D02*
X144341400Y-109359200D01*
%TO.N,EN*%
X142422600Y-118576601D02*
X140048801Y-118576601D01*
X140048801Y-118576601D02*
X139771400Y-118299200D01*
X139771400Y-118299200D02*
X139771400Y-118169200D01*
X139771400Y-118169200D02*
X139051400Y-117449200D01*
%TO.N,Net-(R6-Pad2)*%
X145961400Y-106739200D02*
X148001400Y-106739200D01*
X144351400Y-108349200D02*
X145961400Y-106739200D01*
X150696400Y-104044200D02*
X152696400Y-104044200D01*
X148001400Y-106739200D02*
X150696400Y-104044200D01*
X152696400Y-104044200D02*
X153621400Y-104969200D01*
%TO.N,STDBY*%
X150381400Y-118189200D02*
X150481400Y-118089200D01*
X149993999Y-118576601D02*
X147269200Y-118576601D01*
X150381400Y-118189200D02*
X149993999Y-118576601D01*
X153301400Y-118089200D02*
X153441400Y-118229200D01*
X150481400Y-118089200D02*
X153301400Y-118089200D01*
%TO.N,SPREAD*%
X139751400Y-114289200D02*
X139751400Y-113299200D01*
X139751400Y-113299200D02*
X139771400Y-113279200D01*
%TO.N,DIAG*%
X145241400Y-110629200D02*
X144845900Y-111024700D01*
X144845900Y-111024700D02*
X144845900Y-115153300D01*
%TO.N,MS1*%
X143845899Y-115153300D02*
X143845899Y-111353699D01*
X143845899Y-111353699D02*
X143801400Y-111309200D01*
%TO.N,DIR*%
X152291400Y-115229200D02*
X149444001Y-118076599D01*
X149444001Y-118076599D02*
X147269200Y-118076599D01*
%TO.N,MS2*%
X144481400Y-110769200D02*
X144321400Y-110609200D01*
X144345901Y-115153300D02*
X144345901Y-114624701D01*
X144345901Y-114624701D02*
X144481400Y-114489202D01*
X144481400Y-114489202D02*
X144481400Y-110769200D01*
%TO.N,INDEX*%
X145345899Y-112054701D02*
X145345899Y-115153300D01*
X145511400Y-111889200D02*
X145345899Y-112054701D01*
%TO.N,__VREF__*%
X150971400Y-114861688D02*
X150978912Y-114861688D01*
X148688973Y-117076601D02*
X147269200Y-117076601D01*
X150971400Y-114861688D02*
X150903887Y-114861688D01*
X149713887Y-116051687D02*
X148688973Y-117076601D01*
X150016375Y-115749200D02*
X149713887Y-116051687D01*
X151961400Y-113879200D02*
X152641400Y-113879200D01*
X150903887Y-114861688D02*
X150016375Y-115749200D01*
X150978912Y-114861688D02*
X151961400Y-113879200D01*
%TO.N,UART_TX*%
X146501400Y-108349200D02*
X147641400Y-108349200D01*
X147641400Y-108349200D02*
X147701400Y-108289200D01*
%TO.N,UART_RX*%
X146781397Y-109089203D02*
X146611400Y-109259200D01*
X146345900Y-114804700D02*
X146345900Y-115153300D01*
X147701400Y-109089203D02*
X146781397Y-109089203D01*
X146611400Y-109259200D02*
X146611400Y-114539200D01*
X146611400Y-114539200D02*
X146345900Y-114804700D01*
X146781397Y-109089203D02*
X146501400Y-109369200D01*
%TO.N,SPREAD*%
X139771400Y-112319200D02*
X139771400Y-113279200D01*
X138561400Y-111109200D02*
X139771400Y-112319200D01*
%TO.N,VCC_IO*%
X137986400Y-113544200D02*
X138731400Y-114289200D01*
X137986400Y-110871027D02*
X137986400Y-113544200D01*
X138323227Y-110534200D02*
X137986400Y-110871027D01*
X138799573Y-110534200D02*
X138323227Y-110534200D01*
X138967986Y-110702614D02*
X138799573Y-110534200D01*
X139127087Y-110543513D02*
X138967986Y-110702614D01*
%TO.N,Net-(U1-VCP)*%
X141104553Y-116576599D02*
X139847154Y-115319200D01*
X142422600Y-116576599D02*
X141104553Y-116576599D01*
X139847154Y-115319200D02*
X139751400Y-115319200D01*
%TD*%
%TA.AperFunction,Conductor*%
%TO.N,GND*%
G36*
X155451968Y-103957359D02*
G01*
X155478324Y-104002962D01*
X155479500Y-104016367D01*
X155479500Y-126522500D01*
X155461485Y-126571995D01*
X155415871Y-126598330D01*
X155402500Y-126599500D01*
X155151153Y-126599500D01*
X154996506Y-126630262D01*
X154996501Y-126630263D01*
X154850817Y-126690607D01*
X154719712Y-126778209D01*
X154608213Y-126889708D01*
X154593988Y-126910997D01*
X154551511Y-126942140D01*
X154529721Y-126945216D01*
X154237613Y-126944287D01*
X154188176Y-126926115D01*
X154161986Y-126880417D01*
X154160859Y-126867444D01*
X154152900Y-122648951D01*
X154152841Y-122617688D01*
X154152816Y-122617131D01*
X154149633Y-121398098D01*
X154143099Y-118895598D01*
X154142464Y-118881703D01*
X154141290Y-118868512D01*
X154120267Y-118802040D01*
X154093919Y-118756433D01*
X154093918Y-118756431D01*
X154073484Y-118728481D01*
X154073481Y-118728479D01*
X154009275Y-118685448D01*
X154009274Y-118685447D01*
X153964770Y-118669263D01*
X153959774Y-118667446D01*
X153944762Y-118664803D01*
X153904531Y-118657720D01*
X153901187Y-118657429D01*
X153901301Y-118656120D01*
X153856201Y-118639705D01*
X153829866Y-118594091D01*
X153835256Y-118549620D01*
X153865072Y-118482095D01*
X153867900Y-118457719D01*
X153867899Y-118000682D01*
X153865072Y-117976305D01*
X153821052Y-117876609D01*
X153821050Y-117876607D01*
X153821048Y-117876604D01*
X153743995Y-117799551D01*
X153743989Y-117799547D01*
X153644295Y-117755527D01*
X153622452Y-117752993D01*
X153619919Y-117752700D01*
X153619918Y-117752700D01*
X153262881Y-117752700D01*
X153262880Y-117752701D01*
X153238507Y-117755527D01*
X153238502Y-117755528D01*
X153138810Y-117799547D01*
X153138808Y-117799548D01*
X153121528Y-117816829D01*
X153103209Y-117835147D01*
X153055475Y-117857407D01*
X153048763Y-117857700D01*
X150731811Y-117857700D01*
X150689019Y-117842124D01*
X150688052Y-117843630D01*
X150572992Y-117769685D01*
X150572988Y-117769683D01*
X150447035Y-117732700D01*
X150315765Y-117732700D01*
X150315764Y-117732700D01*
X150310620Y-117733440D01*
X150259065Y-117722654D01*
X150226505Y-117681252D01*
X150228175Y-117628608D01*
X150245213Y-117602777D01*
X151177622Y-116670368D01*
X152144393Y-115703596D01*
X152192128Y-115681337D01*
X152220528Y-115684162D01*
X152225765Y-115685700D01*
X152225768Y-115685700D01*
X152357031Y-115685700D01*
X152357035Y-115685700D01*
X152482987Y-115648717D01*
X152489190Y-115644731D01*
X152511946Y-115630106D01*
X152593418Y-115577747D01*
X152679381Y-115478540D01*
X152733912Y-115359133D01*
X152752594Y-115229200D01*
X152733912Y-115099267D01*
X152679381Y-114979860D01*
X152593418Y-114880653D01*
X152593416Y-114880652D01*
X152593417Y-114880652D01*
X152482989Y-114809683D01*
X152357035Y-114772700D01*
X152225765Y-114772700D01*
X152225764Y-114772700D01*
X152099811Y-114809683D01*
X152099810Y-114809683D01*
X151989383Y-114880652D01*
X151989382Y-114880652D01*
X151989382Y-114880653D01*
X151987896Y-114882368D01*
X151903419Y-114979859D01*
X151903419Y-114979860D01*
X151862569Y-115069311D01*
X151848888Y-115099268D01*
X151830206Y-115229199D01*
X151830206Y-115229201D01*
X151841540Y-115308032D01*
X151830753Y-115359586D01*
X151819771Y-115373437D01*
X149370664Y-117822546D01*
X149322928Y-117844806D01*
X149316217Y-117845099D01*
X147797052Y-117845099D01*
X147754274Y-117832122D01*
X147708863Y-117801779D01*
X147663214Y-117792699D01*
X146875186Y-117792699D01*
X146837742Y-117800147D01*
X146829537Y-117801779D01*
X146829534Y-117801780D01*
X146777770Y-117836367D01*
X146777768Y-117836369D01*
X146743181Y-117888133D01*
X146743180Y-117888136D01*
X146734100Y-117933785D01*
X146734100Y-118219413D01*
X146741605Y-118257142D01*
X146743180Y-118265061D01*
X146743181Y-118265064D01*
X146755715Y-118283823D01*
X146768233Y-118334985D01*
X146755715Y-118369377D01*
X146743181Y-118388135D01*
X146743180Y-118388138D01*
X146734100Y-118433787D01*
X146734100Y-118719415D01*
X146735904Y-118728482D01*
X146743180Y-118765066D01*
X146745279Y-118770132D01*
X146747576Y-118822753D01*
X146745035Y-118828976D01*
X146725640Y-118882261D01*
X146715900Y-118937501D01*
X146715900Y-119380700D01*
X146697885Y-119430195D01*
X146652271Y-119456530D01*
X146638900Y-119457700D01*
X146268400Y-119457700D01*
X146258721Y-119458122D01*
X146254317Y-119458315D01*
X146240949Y-119459485D01*
X146240948Y-119459485D01*
X146235398Y-119461236D01*
X146212243Y-119464800D01*
X146203086Y-119464800D01*
X146167311Y-119471916D01*
X146157437Y-119473880D01*
X146157434Y-119473881D01*
X146105670Y-119508468D01*
X146071080Y-119560235D01*
X146071077Y-119560242D01*
X146070908Y-119561096D01*
X146059346Y-119588945D01*
X146057656Y-119591465D01*
X146039640Y-119640960D01*
X146029900Y-119696200D01*
X146029900Y-120409992D01*
X146011885Y-120459487D01*
X145966271Y-120485822D01*
X145914400Y-120476676D01*
X145900178Y-120466111D01*
X145870465Y-120438196D01*
X145867115Y-120435138D01*
X145867114Y-120435137D01*
X145867092Y-120435117D01*
X145863869Y-120432255D01*
X145863868Y-120432254D01*
X145823489Y-120408181D01*
X145811872Y-120401255D01*
X145811871Y-120401254D01*
X145811870Y-120401254D01*
X145774165Y-120387530D01*
X145733817Y-120353673D01*
X145723501Y-120315174D01*
X145723501Y-119685110D01*
X145723501Y-119685100D01*
X145722886Y-119671022D01*
X145721716Y-119657651D01*
X145700694Y-119590980D01*
X145674359Y-119545366D01*
X145653932Y-119517408D01*
X145653928Y-119517405D01*
X145653927Y-119517404D01*
X145589735Y-119474356D01*
X145589730Y-119474353D01*
X145540240Y-119456340D01*
X145485001Y-119446600D01*
X145206800Y-119446600D01*
X145197121Y-119447022D01*
X145192717Y-119447215D01*
X145179349Y-119448385D01*
X145179348Y-119448385D01*
X145112682Y-119469406D01*
X145112675Y-119469409D01*
X145108333Y-119471916D01*
X145056462Y-119481059D01*
X145040368Y-119476368D01*
X145034364Y-119473881D01*
X145034363Y-119473880D01*
X144988714Y-119464800D01*
X144703086Y-119464800D01*
X144667311Y-119471916D01*
X144657432Y-119473881D01*
X144652365Y-119475980D01*
X144599744Y-119478275D01*
X144593531Y-119475738D01*
X144589732Y-119474355D01*
X144576135Y-119469406D01*
X144540239Y-119456340D01*
X144485000Y-119446600D01*
X144206799Y-119446600D01*
X144197120Y-119447022D01*
X144192716Y-119447215D01*
X144179348Y-119448385D01*
X144179347Y-119448385D01*
X144112681Y-119469406D01*
X144112678Y-119469407D01*
X144067066Y-119495740D01*
X144067065Y-119495741D01*
X144039108Y-119516168D01*
X144039103Y-119516173D01*
X143996055Y-119580365D01*
X143996052Y-119580370D01*
X143978039Y-119629860D01*
X143968299Y-119685100D01*
X143968299Y-120302474D01*
X143950284Y-120351969D01*
X143912385Y-120376530D01*
X143878294Y-120386236D01*
X143854754Y-120392939D01*
X143854751Y-120392940D01*
X143836478Y-120402598D01*
X143784302Y-120409798D01*
X143739704Y-120381775D01*
X143723499Y-120334521D01*
X143723499Y-119685110D01*
X143723499Y-119685100D01*
X143722884Y-119671022D01*
X143721714Y-119657651D01*
X143700692Y-119590980D01*
X143674357Y-119545366D01*
X143653930Y-119517408D01*
X143653926Y-119517405D01*
X143653925Y-119517404D01*
X143589733Y-119474356D01*
X143589728Y-119474353D01*
X143540238Y-119456340D01*
X143484999Y-119446600D01*
X143052900Y-119446600D01*
X143003405Y-119428585D01*
X142977070Y-119382971D01*
X142975900Y-119369600D01*
X142975900Y-118937511D01*
X142975900Y-118937501D01*
X142975285Y-118923423D01*
X142974115Y-118910052D01*
X142953093Y-118843381D01*
X142950586Y-118839038D01*
X142941440Y-118787167D01*
X142946132Y-118771069D01*
X142948616Y-118765069D01*
X142948620Y-118765064D01*
X142957700Y-118719415D01*
X142957700Y-118433787D01*
X142948620Y-118388138D01*
X142946075Y-118384329D01*
X142914031Y-118336371D01*
X142914029Y-118336369D01*
X142862265Y-118301782D01*
X142862263Y-118301781D01*
X142816614Y-118292701D01*
X142028586Y-118292701D01*
X141982937Y-118301781D01*
X141937525Y-118332124D01*
X141894748Y-118345101D01*
X140274900Y-118345101D01*
X140225405Y-118327086D01*
X140199070Y-118281472D01*
X140197900Y-118268101D01*
X140197899Y-118070682D01*
X140197899Y-118070681D01*
X140195072Y-118046305D01*
X140189875Y-118034536D01*
X140176420Y-118004062D01*
X140151052Y-117946609D01*
X140151050Y-117946607D01*
X140151048Y-117946604D01*
X140073995Y-117869551D01*
X140073989Y-117869547D01*
X139974295Y-117825527D01*
X139949919Y-117822700D01*
X139784184Y-117822700D01*
X139734689Y-117804685D01*
X139729737Y-117800147D01*
X139523027Y-117593437D01*
X139500767Y-117545701D01*
X139501257Y-117528038D01*
X139512594Y-117449200D01*
X139493912Y-117319267D01*
X139439381Y-117199860D01*
X139428445Y-117187239D01*
X139409648Y-117138039D01*
X139426874Y-117088264D01*
X139472065Y-117061208D01*
X139517738Y-117066376D01*
X139532340Y-117072824D01*
X139557130Y-117075700D01*
X139557131Y-117075700D01*
X139925669Y-117075700D01*
X139925670Y-117075700D01*
X139950460Y-117072824D01*
X140051865Y-117028049D01*
X140051868Y-117028045D01*
X140053109Y-117027196D01*
X140054755Y-117026772D01*
X140058392Y-117025167D01*
X140058657Y-117025769D01*
X140104122Y-117014081D01*
X140151078Y-117036269D01*
X140887663Y-117772855D01*
X140887664Y-117772856D01*
X140972752Y-117808100D01*
X141894748Y-117808100D01*
X141937525Y-117821076D01*
X141982937Y-117851420D01*
X142028586Y-117860500D01*
X142028590Y-117860500D01*
X142816610Y-117860500D01*
X142816614Y-117860500D01*
X142862263Y-117851420D01*
X142905245Y-117822700D01*
X142914029Y-117816831D01*
X142914031Y-117816829D01*
X142930154Y-117792699D01*
X142948620Y-117765063D01*
X142957700Y-117719414D01*
X142957700Y-117433786D01*
X142948620Y-117388137D01*
X142936085Y-117369378D01*
X142923567Y-117318217D01*
X142936084Y-117283824D01*
X142948620Y-117265064D01*
X142957700Y-117219415D01*
X142957700Y-116933787D01*
X142948620Y-116888138D01*
X142936083Y-116869376D01*
X142923564Y-116818220D01*
X142936084Y-116783823D01*
X142948620Y-116765062D01*
X142957700Y-116719413D01*
X142957700Y-116433785D01*
X142948620Y-116388136D01*
X142936085Y-116369377D01*
X142923567Y-116318216D01*
X142936084Y-116283823D01*
X142948620Y-116265063D01*
X142957700Y-116219414D01*
X142957700Y-115933786D01*
X146734100Y-115933786D01*
X146734100Y-116219414D01*
X146743180Y-116265063D01*
X146749687Y-116274801D01*
X146755714Y-116283821D01*
X146768232Y-116334983D01*
X146755714Y-116369376D01*
X146743180Y-116388136D01*
X146734100Y-116433785D01*
X146734100Y-116719413D01*
X146740025Y-116749199D01*
X146743180Y-116765061D01*
X146743181Y-116765064D01*
X146755715Y-116783823D01*
X146768233Y-116834985D01*
X146755715Y-116869377D01*
X146743181Y-116888135D01*
X146743180Y-116888138D01*
X146734100Y-116933787D01*
X146734100Y-117219415D01*
X146743180Y-117265063D01*
X146743181Y-117265066D01*
X146777768Y-117316830D01*
X146777770Y-117316832D01*
X146820077Y-117345100D01*
X146829537Y-117351421D01*
X146875186Y-117360501D01*
X146875190Y-117360501D01*
X147663210Y-117360501D01*
X147663214Y-117360501D01*
X147708863Y-117351421D01*
X147754274Y-117321077D01*
X147797052Y-117308101D01*
X148735020Y-117308101D01*
X148735021Y-117308101D01*
X148820107Y-117272857D01*
X148820109Y-117272854D01*
X148820111Y-117272854D01*
X149367818Y-116725145D01*
X149910143Y-116182822D01*
X149910143Y-116182821D01*
X149920968Y-116171996D01*
X149920969Y-116171993D01*
X150212631Y-115880335D01*
X150212631Y-115880333D01*
X150772203Y-115320760D01*
X150819938Y-115298501D01*
X150848342Y-115301327D01*
X150905765Y-115318188D01*
X150905769Y-115318188D01*
X151037031Y-115318188D01*
X151037035Y-115318188D01*
X151162987Y-115281205D01*
X151178221Y-115271415D01*
X151212602Y-115249319D01*
X151273418Y-115210235D01*
X151359381Y-115111028D01*
X151413912Y-114991621D01*
X151432594Y-114861688D01*
X151422203Y-114789420D01*
X151432990Y-114737867D01*
X151443968Y-114724020D01*
X151889110Y-114278878D01*
X151936845Y-114256619D01*
X151987721Y-114270251D01*
X152007581Y-114290550D01*
X152008570Y-114292030D01*
X152060337Y-114326620D01*
X152105986Y-114335700D01*
X152105990Y-114335700D01*
X153136810Y-114335700D01*
X153136814Y-114335700D01*
X153182463Y-114326620D01*
X153228621Y-114295778D01*
X153279783Y-114283259D01*
X153314179Y-114295778D01*
X153360337Y-114326620D01*
X153405986Y-114335700D01*
X153405990Y-114335700D01*
X154436810Y-114335700D01*
X154436814Y-114335700D01*
X154482463Y-114326620D01*
X154534230Y-114292030D01*
X154568820Y-114240263D01*
X154577900Y-114194614D01*
X154577900Y-112663786D01*
X154568820Y-112618137D01*
X154568818Y-112618134D01*
X154534231Y-112566370D01*
X154534229Y-112566368D01*
X154482465Y-112531781D01*
X154482463Y-112531780D01*
X154436814Y-112522700D01*
X154436811Y-112522700D01*
X153724185Y-112522700D01*
X153674690Y-112504685D01*
X153669738Y-112500147D01*
X152595453Y-111425862D01*
X152573193Y-111378126D01*
X152572900Y-111371415D01*
X152572900Y-109432700D01*
X152590915Y-109383205D01*
X152636529Y-109356870D01*
X152649900Y-109355700D01*
X153156810Y-109355700D01*
X153156814Y-109355700D01*
X153202463Y-109346620D01*
X153254230Y-109312030D01*
X153288820Y-109260263D01*
X153297900Y-109214614D01*
X153297900Y-107683786D01*
X153288820Y-107638137D01*
X153288818Y-107638134D01*
X153254231Y-107586370D01*
X153254229Y-107586368D01*
X153202465Y-107551781D01*
X153202463Y-107551780D01*
X153156814Y-107542700D01*
X151525986Y-107542700D01*
X151480337Y-107551780D01*
X151480334Y-107551781D01*
X151428570Y-107586368D01*
X151428568Y-107586370D01*
X151393981Y-107638134D01*
X151393980Y-107638137D01*
X151384900Y-107683786D01*
X151384900Y-109214614D01*
X151393980Y-109260262D01*
X151393981Y-109260265D01*
X151428568Y-109312029D01*
X151428570Y-109312031D01*
X151468249Y-109338543D01*
X151480337Y-109346620D01*
X151525986Y-109355700D01*
X152032900Y-109355700D01*
X152082395Y-109373715D01*
X152108730Y-109419329D01*
X152109900Y-109432700D01*
X152109900Y-111453152D01*
X152109900Y-111545248D01*
X152145067Y-111630147D01*
X152145145Y-111630336D01*
X152906062Y-112391253D01*
X152928322Y-112438989D01*
X152914690Y-112489865D01*
X152871544Y-112520076D01*
X152851615Y-112522700D01*
X152105986Y-112522700D01*
X152060337Y-112531780D01*
X152060334Y-112531781D01*
X152008570Y-112566368D01*
X152008568Y-112566370D01*
X151973981Y-112618134D01*
X151973980Y-112618137D01*
X151964900Y-112663788D01*
X151964900Y-113263076D01*
X151946885Y-113312571D01*
X151901271Y-113338906D01*
X151849400Y-113329760D01*
X151817858Y-113295063D01*
X151774381Y-113199860D01*
X151688418Y-113100653D01*
X151688416Y-113100652D01*
X151688417Y-113100652D01*
X151577989Y-113029684D01*
X151577988Y-113029683D01*
X151577987Y-113029683D01*
X151454676Y-112993475D01*
X151412263Y-112962247D01*
X151399845Y-112911060D01*
X151418176Y-112869173D01*
X151479381Y-112798540D01*
X151533912Y-112679133D01*
X151552594Y-112549200D01*
X151533912Y-112419267D01*
X151479381Y-112299860D01*
X151393418Y-112200653D01*
X151393415Y-112200651D01*
X151393414Y-112200649D01*
X151358270Y-112178064D01*
X151326372Y-112136150D01*
X151322900Y-112113288D01*
X151322900Y-112053153D01*
X151322900Y-112053152D01*
X151287656Y-111968066D01*
X151222534Y-111902944D01*
X150793594Y-111474004D01*
X150362537Y-111042946D01*
X150362536Y-111042945D01*
X150362534Y-111042944D01*
X150277448Y-111007700D01*
X150277447Y-111007700D01*
X148120004Y-111007700D01*
X148070509Y-110989685D01*
X148061811Y-110981124D01*
X148058885Y-110977747D01*
X147983418Y-110890653D01*
X147983416Y-110890652D01*
X147983417Y-110890652D01*
X147872989Y-110819683D01*
X147747035Y-110782700D01*
X147615765Y-110782700D01*
X147615764Y-110782700D01*
X147489811Y-110819683D01*
X147489810Y-110819683D01*
X147379383Y-110890652D01*
X147293419Y-110989859D01*
X147269176Y-111042945D01*
X147238888Y-111109267D01*
X147237260Y-111120590D01*
X147222078Y-111226183D01*
X147220206Y-111239200D01*
X147238888Y-111369133D01*
X147293419Y-111488540D01*
X147379382Y-111587747D01*
X147489810Y-111658716D01*
X147489812Y-111658716D01*
X147489813Y-111658717D01*
X147615765Y-111695700D01*
X147615769Y-111695700D01*
X147747031Y-111695700D01*
X147747035Y-111695700D01*
X147872987Y-111658717D01*
X147873411Y-111658445D01*
X147910722Y-111634466D01*
X147983418Y-111587747D01*
X148061811Y-111497275D01*
X148107838Y-111471667D01*
X148120004Y-111470700D01*
X150103616Y-111470700D01*
X150153111Y-111488715D01*
X150158063Y-111493253D01*
X150774009Y-112109199D01*
X150796269Y-112156935D01*
X150782637Y-112207811D01*
X150777755Y-112214070D01*
X150703419Y-112299859D01*
X150678813Y-112353739D01*
X150661682Y-112391253D01*
X150648888Y-112419268D01*
X150630206Y-112549199D01*
X150630206Y-112549201D01*
X150641540Y-112628032D01*
X150630753Y-112679586D01*
X150619771Y-112693437D01*
X149343063Y-113970147D01*
X149295327Y-113992407D01*
X149288616Y-113992700D01*
X149027130Y-113992700D01*
X149023877Y-113993077D01*
X149002342Y-113995575D01*
X148900936Y-114040350D01*
X148900933Y-114040352D01*
X148822552Y-114118733D01*
X148822550Y-114118736D01*
X148777775Y-114220142D01*
X148774900Y-114244930D01*
X148774900Y-114613469D01*
X148777775Y-114638257D01*
X148777775Y-114638259D01*
X148777776Y-114638260D01*
X148822551Y-114739665D01*
X148900935Y-114818049D01*
X148963924Y-114845861D01*
X148964002Y-114845896D01*
X149002003Y-114882368D01*
X149009900Y-114916335D01*
X149009900Y-115271415D01*
X148991885Y-115320910D01*
X148987347Y-115325862D01*
X148490663Y-115822547D01*
X148442927Y-115844807D01*
X148436216Y-115845100D01*
X147797052Y-115845100D01*
X147754274Y-115832123D01*
X147708863Y-115801780D01*
X147663214Y-115792700D01*
X146875186Y-115792700D01*
X146829537Y-115801780D01*
X146829534Y-115801781D01*
X146777770Y-115836368D01*
X146777768Y-115836370D01*
X146743181Y-115888134D01*
X146743180Y-115888137D01*
X146734100Y-115933786D01*
X142957700Y-115933786D01*
X142948620Y-115888137D01*
X142943407Y-115880335D01*
X142914031Y-115836370D01*
X142914029Y-115836368D01*
X142862265Y-115801781D01*
X142862263Y-115801780D01*
X142816614Y-115792700D01*
X142028586Y-115792700D01*
X141982937Y-115801780D01*
X141937525Y-115832123D01*
X141894748Y-115845100D01*
X141646584Y-115845100D01*
X141597089Y-115827085D01*
X141592137Y-115822547D01*
X140200452Y-114430862D01*
X140178192Y-114383126D01*
X140177899Y-114376415D01*
X140177899Y-114060681D01*
X140177898Y-114060680D01*
X140175072Y-114036305D01*
X140131052Y-113936609D01*
X140053991Y-113859548D01*
X140053986Y-113859546D01*
X140052872Y-113859054D01*
X140051881Y-113858103D01*
X140048103Y-113855515D01*
X140048532Y-113854888D01*
X140014871Y-113822583D01*
X140009204Y-113770218D01*
X140038523Y-113726461D01*
X140052867Y-113718178D01*
X140073991Y-113708852D01*
X140151052Y-113631791D01*
X140195072Y-113532095D01*
X140197900Y-113507719D01*
X140197899Y-113050682D01*
X140195072Y-113026305D01*
X140151052Y-112926609D01*
X140073991Y-112849548D01*
X140048798Y-112838424D01*
X140010797Y-112801952D01*
X140002900Y-112767985D01*
X140002900Y-112273152D01*
X139967656Y-112188066D01*
X139967656Y-112188065D01*
X139967655Y-112188064D01*
X139508308Y-111728717D01*
X139033026Y-111253436D01*
X139010767Y-111205701D01*
X139011257Y-111188038D01*
X139022594Y-111109200D01*
X139019542Y-111087971D01*
X139030329Y-111036417D01*
X139071731Y-111003858D01*
X139095758Y-111000013D01*
X139192718Y-111000013D01*
X139192722Y-111000013D01*
X139318674Y-110963030D01*
X139326464Y-110958024D01*
X139359202Y-110936984D01*
X139429105Y-110892060D01*
X139457470Y-110859324D01*
X139503494Y-110833715D01*
X139555214Y-110843681D01*
X139570110Y-110855300D01*
X140730144Y-112015334D01*
X140795266Y-112080456D01*
X140880352Y-112115700D01*
X142152796Y-112115700D01*
X142202291Y-112133715D01*
X142210987Y-112142274D01*
X142289382Y-112232747D01*
X142399810Y-112303716D01*
X142399812Y-112303716D01*
X142399813Y-112303717D01*
X142525765Y-112340700D01*
X142525769Y-112340700D01*
X142657031Y-112340700D01*
X142657035Y-112340700D01*
X142782987Y-112303717D01*
X142893418Y-112232747D01*
X142954709Y-112162012D01*
X143000733Y-112136405D01*
X143052453Y-112146373D01*
X143085665Y-112187253D01*
X143089900Y-112212438D01*
X143089900Y-114662113D01*
X143076925Y-114704888D01*
X143071080Y-114713637D01*
X143062000Y-114759286D01*
X143062000Y-115547314D01*
X143071080Y-115592962D01*
X143071081Y-115592965D01*
X143105668Y-115644729D01*
X143105670Y-115644731D01*
X143145422Y-115671292D01*
X143157437Y-115679320D01*
X143203086Y-115688400D01*
X143203090Y-115688400D01*
X143488710Y-115688400D01*
X143488714Y-115688400D01*
X143534363Y-115679320D01*
X143553122Y-115666785D01*
X143604281Y-115654267D01*
X143638677Y-115666785D01*
X143657436Y-115679320D01*
X143703085Y-115688400D01*
X143703089Y-115688400D01*
X143988709Y-115688400D01*
X143988713Y-115688400D01*
X144034362Y-115679320D01*
X144053123Y-115666783D01*
X144104280Y-115654264D01*
X144138674Y-115666782D01*
X144157438Y-115679320D01*
X144203087Y-115688400D01*
X144203091Y-115688400D01*
X144488711Y-115688400D01*
X144488715Y-115688400D01*
X144534364Y-115679320D01*
X144553123Y-115666785D01*
X144604282Y-115654267D01*
X144638678Y-115666785D01*
X144657437Y-115679320D01*
X144703086Y-115688400D01*
X144703090Y-115688400D01*
X144988710Y-115688400D01*
X144988714Y-115688400D01*
X145034363Y-115679320D01*
X145053122Y-115666785D01*
X145104281Y-115654267D01*
X145138677Y-115666785D01*
X145157436Y-115679320D01*
X145203085Y-115688400D01*
X145203089Y-115688400D01*
X145488709Y-115688400D01*
X145488713Y-115688400D01*
X145534362Y-115679320D01*
X145553123Y-115666783D01*
X145604280Y-115654264D01*
X145638674Y-115666782D01*
X145657438Y-115679320D01*
X145703087Y-115688400D01*
X145703091Y-115688400D01*
X145988711Y-115688400D01*
X145988715Y-115688400D01*
X146034364Y-115679320D01*
X146053123Y-115666785D01*
X146104282Y-115654267D01*
X146138678Y-115666785D01*
X146157437Y-115679320D01*
X146203086Y-115688400D01*
X146203090Y-115688400D01*
X146488710Y-115688400D01*
X146488714Y-115688400D01*
X146534363Y-115679320D01*
X146586130Y-115644730D01*
X146620720Y-115592963D01*
X146629800Y-115547314D01*
X146629800Y-114880084D01*
X146647815Y-114830589D01*
X146652353Y-114825637D01*
X146807654Y-114670336D01*
X146807656Y-114670334D01*
X146842900Y-114585248D01*
X146842900Y-114493152D01*
X146842900Y-109791838D01*
X146860915Y-109742343D01*
X146865453Y-109737391D01*
X146931048Y-109671795D01*
X146931052Y-109671791D01*
X146975072Y-109572095D01*
X146977900Y-109547719D01*
X146977899Y-109397703D01*
X146995913Y-109348209D01*
X147041528Y-109321873D01*
X147054899Y-109320703D01*
X147262796Y-109320703D01*
X147312291Y-109338718D01*
X147320987Y-109347277D01*
X147399382Y-109437750D01*
X147509810Y-109508719D01*
X147509812Y-109508719D01*
X147509813Y-109508720D01*
X147635765Y-109545703D01*
X147635769Y-109545703D01*
X147767031Y-109545703D01*
X147767035Y-109545703D01*
X147892987Y-109508720D01*
X148003418Y-109437750D01*
X148089381Y-109338543D01*
X148143912Y-109219136D01*
X148162594Y-109089203D01*
X148143912Y-108959270D01*
X148089381Y-108839863D01*
X148003418Y-108740656D01*
X148003416Y-108740655D01*
X148002524Y-108739625D01*
X147983727Y-108690423D01*
X148000954Y-108640648D01*
X148002524Y-108638776D01*
X148003412Y-108637750D01*
X148003418Y-108637747D01*
X148089381Y-108538540D01*
X148143912Y-108419133D01*
X148162594Y-108289200D01*
X148143912Y-108159267D01*
X148089381Y-108039860D01*
X148003418Y-107940653D01*
X148003416Y-107940652D01*
X148003417Y-107940652D01*
X147892989Y-107869683D01*
X147767035Y-107832700D01*
X147635765Y-107832700D01*
X147635764Y-107832700D01*
X147509811Y-107869683D01*
X147509810Y-107869683D01*
X147399383Y-107940652D01*
X147313419Y-108039859D01*
X147298428Y-108072687D01*
X147261480Y-108110225D01*
X147228386Y-108117700D01*
X147012615Y-108117700D01*
X146963120Y-108099685D01*
X146942176Y-108071802D01*
X146940916Y-108068950D01*
X146931052Y-108046609D01*
X146853991Y-107969548D01*
X146853989Y-107969547D01*
X146754295Y-107925527D01*
X146732452Y-107922993D01*
X146729919Y-107922700D01*
X146729918Y-107922700D01*
X146272881Y-107922700D01*
X146272880Y-107922701D01*
X146248507Y-107925527D01*
X146248502Y-107925528D01*
X146148810Y-107969547D01*
X146148804Y-107969551D01*
X146071751Y-108046604D01*
X146071747Y-108046610D01*
X146027727Y-108146304D01*
X146024900Y-108170681D01*
X146024900Y-108527718D01*
X146024901Y-108527719D01*
X146027727Y-108552092D01*
X146027728Y-108552097D01*
X146071747Y-108651789D01*
X146071751Y-108651795D01*
X146148804Y-108728848D01*
X146148807Y-108728850D01*
X146148809Y-108728852D01*
X146198657Y-108750862D01*
X146248504Y-108772872D01*
X146251038Y-108773165D01*
X146272881Y-108775700D01*
X146581615Y-108775699D01*
X146631109Y-108793713D01*
X146657445Y-108839328D01*
X146648299Y-108891199D01*
X146636062Y-108907146D01*
X146623061Y-108920147D01*
X146575325Y-108942407D01*
X146568614Y-108942700D01*
X146272881Y-108942700D01*
X146272880Y-108942701D01*
X146248507Y-108945527D01*
X146248502Y-108945528D01*
X146148810Y-108989547D01*
X146148804Y-108989551D01*
X146071751Y-109066604D01*
X146071747Y-109066610D01*
X146027727Y-109166304D01*
X146024900Y-109190681D01*
X146024900Y-109465002D01*
X146006885Y-109514497D01*
X145961271Y-109540832D01*
X145926188Y-109538877D01*
X145923187Y-109537995D01*
X145880780Y-109506756D01*
X145867899Y-109464120D01*
X145867899Y-109180681D01*
X145867898Y-109180680D01*
X145865072Y-109156305D01*
X145859947Y-109144699D01*
X145843168Y-109106698D01*
X145821052Y-109056609D01*
X145821050Y-109056607D01*
X145821048Y-109056604D01*
X145743995Y-108979551D01*
X145743989Y-108979547D01*
X145644295Y-108935527D01*
X145622452Y-108932993D01*
X145619919Y-108932700D01*
X145619918Y-108932700D01*
X145162881Y-108932700D01*
X145162880Y-108932701D01*
X145138507Y-108935527D01*
X145138502Y-108935528D01*
X145038810Y-108979547D01*
X145038804Y-108979551D01*
X144961751Y-109056604D01*
X144961748Y-109056608D01*
X144939631Y-109106699D01*
X144903159Y-109144699D01*
X144850794Y-109150366D01*
X144807037Y-109121047D01*
X144798753Y-109106698D01*
X144781052Y-109066609D01*
X144781048Y-109066604D01*
X144703995Y-108989551D01*
X144703989Y-108989547D01*
X144604295Y-108945527D01*
X144582452Y-108942993D01*
X144579919Y-108942700D01*
X144579918Y-108942700D01*
X144122881Y-108942700D01*
X144122880Y-108942701D01*
X144098507Y-108945527D01*
X144098502Y-108945528D01*
X143998810Y-108989547D01*
X143998804Y-108989551D01*
X143921751Y-109066604D01*
X143921749Y-109066607D01*
X143921748Y-109066608D01*
X143921748Y-109066609D01*
X143915039Y-109081802D01*
X143878569Y-109119802D01*
X143844601Y-109127700D01*
X143815289Y-109127700D01*
X143765794Y-109109685D01*
X143744850Y-109081803D01*
X143744849Y-109081801D01*
X143730249Y-109048735D01*
X143651865Y-108970351D01*
X143550460Y-108925576D01*
X143550459Y-108925575D01*
X143550457Y-108925575D01*
X143529413Y-108923134D01*
X143525670Y-108922700D01*
X143097130Y-108922700D01*
X143093877Y-108923077D01*
X143072342Y-108925575D01*
X142970936Y-108970350D01*
X142970933Y-108970352D01*
X142892552Y-109048733D01*
X142892550Y-109048736D01*
X142847775Y-109150142D01*
X142844900Y-109174930D01*
X142844900Y-109543469D01*
X142847775Y-109568257D01*
X142847775Y-109568259D01*
X142847776Y-109568260D01*
X142865639Y-109608715D01*
X142892550Y-109669663D01*
X142892552Y-109669666D01*
X142917347Y-109694461D01*
X142939607Y-109742197D01*
X142939900Y-109748908D01*
X142939900Y-111424509D01*
X142921885Y-111474004D01*
X142876271Y-111500339D01*
X142824400Y-111491193D01*
X142821271Y-111489286D01*
X142782987Y-111464683D01*
X142782988Y-111464683D01*
X142657035Y-111427700D01*
X142525765Y-111427700D01*
X142525764Y-111427700D01*
X142399811Y-111464683D01*
X142399810Y-111464683D01*
X142289383Y-111535652D01*
X142289382Y-111535652D01*
X142289382Y-111535653D01*
X142244243Y-111587747D01*
X142210989Y-111626124D01*
X142164962Y-111651733D01*
X142152796Y-111652700D01*
X141054184Y-111652700D01*
X141004689Y-111634685D01*
X140999737Y-111630147D01*
X139716850Y-110347259D01*
X139716849Y-110347258D01*
X139716847Y-110347257D01*
X139631761Y-110312013D01*
X139631760Y-110312013D01*
X139565691Y-110312013D01*
X139516196Y-110293998D01*
X139507498Y-110285437D01*
X139503352Y-110280652D01*
X139429105Y-110194966D01*
X139429103Y-110194965D01*
X139429104Y-110194965D01*
X139318676Y-110123996D01*
X139192722Y-110087013D01*
X139061452Y-110087013D01*
X139061451Y-110087013D01*
X138935498Y-110123996D01*
X138935497Y-110123996D01*
X138825070Y-110194965D01*
X138825069Y-110194965D01*
X138825069Y-110194966D01*
X138754745Y-110276124D01*
X138708719Y-110301733D01*
X138696553Y-110302700D01*
X138277179Y-110302700D01*
X138217014Y-110327619D01*
X138217015Y-110327620D01*
X138192091Y-110337944D01*
X138192089Y-110337945D01*
X137900837Y-110629200D01*
X137855266Y-110674771D01*
X137837019Y-110693018D01*
X137790145Y-110739891D01*
X137790144Y-110739892D01*
X137790144Y-110739893D01*
X137754900Y-110824979D01*
X137754900Y-113498152D01*
X137754900Y-113590248D01*
X137778698Y-113647700D01*
X137790145Y-113675336D01*
X137790146Y-113675337D01*
X138282347Y-114167537D01*
X138304607Y-114215273D01*
X138304900Y-114221984D01*
X138304900Y-114517718D01*
X138304901Y-114517719D01*
X138307727Y-114542092D01*
X138307728Y-114542097D01*
X138351747Y-114641789D01*
X138351751Y-114641795D01*
X138428804Y-114718848D01*
X138428809Y-114718852D01*
X138500870Y-114750670D01*
X138538871Y-114787141D01*
X138544538Y-114839507D01*
X138515219Y-114883264D01*
X138500872Y-114891547D01*
X138480938Y-114900349D01*
X138480933Y-114900352D01*
X138402552Y-114978733D01*
X138402550Y-114978736D01*
X138357775Y-115080142D01*
X138354900Y-115104930D01*
X138354900Y-115301415D01*
X138336885Y-115350910D01*
X138332347Y-115355862D01*
X137413407Y-116274801D01*
X137365671Y-116297061D01*
X137337272Y-116294236D01*
X137332044Y-116292701D01*
X137332035Y-116292700D01*
X137200765Y-116292700D01*
X137200764Y-116292700D01*
X137074811Y-116329683D01*
X137074810Y-116329683D01*
X136964383Y-116400652D01*
X136878419Y-116499859D01*
X136878419Y-116499860D01*
X136824096Y-116618813D01*
X136823888Y-116619268D01*
X136809490Y-116719408D01*
X136805206Y-116749200D01*
X136823888Y-116879133D01*
X136878419Y-116998540D01*
X136964382Y-117097747D01*
X137074810Y-117168716D01*
X137074812Y-117168716D01*
X137074813Y-117168717D01*
X137200765Y-117205700D01*
X137200769Y-117205700D01*
X137332031Y-117205700D01*
X137332035Y-117205700D01*
X137457987Y-117168717D01*
X137568418Y-117097747D01*
X137654381Y-116998540D01*
X137708912Y-116879133D01*
X137727594Y-116749200D01*
X137716258Y-116670365D01*
X137727044Y-116618813D01*
X137738023Y-116604965D01*
X138536140Y-115806849D01*
X138583875Y-115784590D01*
X138599458Y-115784810D01*
X138602169Y-115785124D01*
X138607130Y-115785700D01*
X138607131Y-115785700D01*
X138975669Y-115785700D01*
X138975670Y-115785700D01*
X139000460Y-115782824D01*
X139101865Y-115738049D01*
X139180249Y-115659665D01*
X139200961Y-115612755D01*
X139237432Y-115574755D01*
X139289797Y-115569088D01*
X139333554Y-115598407D01*
X139341836Y-115612752D01*
X139349501Y-115630109D01*
X139362550Y-115659663D01*
X139362552Y-115659666D01*
X139364649Y-115661763D01*
X139366056Y-115664781D01*
X139366583Y-115665550D01*
X139366455Y-115665637D01*
X139386909Y-115709499D01*
X139373277Y-115760375D01*
X139330131Y-115790586D01*
X139325226Y-115791730D01*
X139320355Y-115792698D01*
X139235263Y-115827945D01*
X139235262Y-115827946D01*
X138943063Y-116120147D01*
X138895327Y-116142407D01*
X138888616Y-116142700D01*
X138597130Y-116142700D01*
X138593877Y-116143077D01*
X138572342Y-116145575D01*
X138470936Y-116190350D01*
X138470933Y-116190352D01*
X138392552Y-116268733D01*
X138392550Y-116268736D01*
X138347775Y-116370142D01*
X138344900Y-116394930D01*
X138344900Y-116823469D01*
X138347775Y-116848257D01*
X138347775Y-116848259D01*
X138347776Y-116848260D01*
X138392551Y-116949665D01*
X138470935Y-117028049D01*
X138572340Y-117072824D01*
X138597130Y-117075700D01*
X138602398Y-117075700D01*
X138651893Y-117093715D01*
X138678228Y-117139329D01*
X138669082Y-117191200D01*
X138666271Y-117195147D01*
X138666396Y-117195228D01*
X138663420Y-117199858D01*
X138663419Y-117199859D01*
X138663419Y-117199860D01*
X138608888Y-117319267D01*
X138590206Y-117449200D01*
X138608888Y-117579133D01*
X138663419Y-117698540D01*
X138663420Y-117698541D01*
X138666396Y-117703172D01*
X138664158Y-117704609D01*
X138679388Y-117744484D01*
X138662158Y-117794257D01*
X138616965Y-117821310D01*
X138602400Y-117822700D01*
X138572883Y-117822700D01*
X138572880Y-117822701D01*
X138548507Y-117825527D01*
X138548502Y-117825528D01*
X138448810Y-117869547D01*
X138448807Y-117869549D01*
X138407459Y-117910897D01*
X138359722Y-117933156D01*
X138308846Y-117919523D01*
X138293511Y-117903567D01*
X138292987Y-117904022D01*
X138289380Y-117899859D01*
X138203418Y-117800653D01*
X138203416Y-117800652D01*
X138203417Y-117800652D01*
X138092989Y-117729683D01*
X137967035Y-117692700D01*
X137835765Y-117692700D01*
X137835764Y-117692700D01*
X137709811Y-117729683D01*
X137709810Y-117729683D01*
X137599383Y-117800652D01*
X137599382Y-117800652D01*
X137599382Y-117800653D01*
X137595888Y-117804685D01*
X137513419Y-117899859D01*
X137492069Y-117946610D01*
X137458888Y-118019267D01*
X137440206Y-118149200D01*
X137458888Y-118279133D01*
X137513419Y-118398540D01*
X137599382Y-118497747D01*
X137625847Y-118514755D01*
X137657745Y-118556668D01*
X137655238Y-118609280D01*
X137619500Y-118647971D01*
X137584463Y-118656531D01*
X134167628Y-118667455D01*
X134164157Y-118667615D01*
X134161040Y-118667758D01*
X134110771Y-118652039D01*
X134082365Y-118607684D01*
X134080500Y-118590840D01*
X134080500Y-104026019D01*
X134098515Y-103976524D01*
X134144129Y-103950189D01*
X134157459Y-103949019D01*
X142271572Y-103945333D01*
X142321072Y-103963324D01*
X142338288Y-103983832D01*
X142347535Y-103999849D01*
X142347537Y-103999852D01*
X142347539Y-103999855D01*
X142549718Y-104271429D01*
X142782058Y-104517695D01*
X143041417Y-104735322D01*
X143324287Y-104921369D01*
X143626843Y-105073318D01*
X143944994Y-105189116D01*
X143944995Y-105189116D01*
X143944995Y-105189117D01*
X144274418Y-105267191D01*
X144274421Y-105267191D01*
X144274436Y-105267195D01*
X144610716Y-105306500D01*
X144610717Y-105306500D01*
X144949283Y-105306500D01*
X144949284Y-105306500D01*
X145285564Y-105267195D01*
X145285581Y-105267191D01*
X145615004Y-105189117D01*
X145615004Y-105189116D01*
X145615006Y-105189116D01*
X145933157Y-105073318D01*
X146235713Y-104921369D01*
X146518583Y-104735322D01*
X146777942Y-104517695D01*
X147010282Y-104271429D01*
X147158858Y-104071857D01*
X147212454Y-103999865D01*
X147212456Y-103999862D01*
X147212456Y-103999860D01*
X147212461Y-103999855D01*
X147223027Y-103981552D01*
X147263372Y-103947697D01*
X147289668Y-103943053D01*
X150285591Y-103941692D01*
X150335091Y-103959683D01*
X150361447Y-104005286D01*
X150352324Y-104057161D01*
X150340070Y-104073138D01*
X147928063Y-106485147D01*
X147880327Y-106507407D01*
X147873616Y-106507700D01*
X146007448Y-106507700D01*
X145915352Y-106507700D01*
X145861695Y-106529925D01*
X145830263Y-106542945D01*
X144473061Y-107900147D01*
X144425325Y-107922407D01*
X144418614Y-107922700D01*
X144122881Y-107922700D01*
X144122880Y-107922701D01*
X144098507Y-107925527D01*
X144098502Y-107925528D01*
X143998810Y-107969547D01*
X143998804Y-107969551D01*
X143921751Y-108046604D01*
X143921747Y-108046610D01*
X143877727Y-108146304D01*
X143874900Y-108170681D01*
X143874900Y-108527718D01*
X143874901Y-108527719D01*
X143877727Y-108552092D01*
X143877728Y-108552097D01*
X143921747Y-108651789D01*
X143921751Y-108651795D01*
X143998804Y-108728848D01*
X143998807Y-108728850D01*
X143998809Y-108728852D01*
X144048657Y-108750862D01*
X144098504Y-108772872D01*
X144101038Y-108773165D01*
X144122881Y-108775700D01*
X144579918Y-108775699D01*
X144604295Y-108772872D01*
X144703991Y-108728852D01*
X144781052Y-108651791D01*
X144825072Y-108552095D01*
X144827900Y-108527719D01*
X144827899Y-108231982D01*
X144845913Y-108182489D01*
X144850440Y-108177548D01*
X146034737Y-106993253D01*
X146082473Y-106970993D01*
X146089184Y-106970700D01*
X148047447Y-106970700D01*
X148047448Y-106970700D01*
X148132534Y-106935456D01*
X150769737Y-104298253D01*
X150817473Y-104275993D01*
X150824184Y-104275700D01*
X152568616Y-104275700D01*
X152618111Y-104293715D01*
X152623063Y-104298253D01*
X152671692Y-104346882D01*
X152693952Y-104394618D01*
X152680320Y-104445494D01*
X152660025Y-104465352D01*
X152628567Y-104486371D01*
X152593981Y-104538134D01*
X152593980Y-104538137D01*
X152584900Y-104583786D01*
X152584900Y-105814614D01*
X152593980Y-105860262D01*
X152593981Y-105860265D01*
X152628568Y-105912029D01*
X152628570Y-105912031D01*
X152680334Y-105946618D01*
X152680337Y-105946620D01*
X152725986Y-105955700D01*
X152725990Y-105955700D01*
X153956810Y-105955700D01*
X153956814Y-105955700D01*
X154002463Y-105946620D01*
X154054230Y-105912030D01*
X154088820Y-105860263D01*
X154097900Y-105814614D01*
X154097900Y-104583786D01*
X154088820Y-104538137D01*
X154075161Y-104517695D01*
X154054231Y-104486370D01*
X154054229Y-104486368D01*
X154002465Y-104451781D01*
X154002463Y-104451780D01*
X153956814Y-104442700D01*
X153956811Y-104442700D01*
X153454184Y-104442700D01*
X153404689Y-104424685D01*
X153399737Y-104420147D01*
X153051447Y-104071857D01*
X153029187Y-104024121D01*
X153042819Y-103973245D01*
X153085965Y-103943034D01*
X153105851Y-103940410D01*
X155402466Y-103939367D01*
X155451968Y-103957359D01*
G37*
%TD.AperFunction*%
%TA.AperFunction,Conductor*%
G36*
X150452064Y-120779773D02*
G01*
X150478654Y-120825240D01*
X150479900Y-120839034D01*
X150479900Y-124089916D01*
X150480054Y-124096960D01*
X150480055Y-124096975D01*
X150480346Y-124103669D01*
X150480347Y-124103670D01*
X150495324Y-124164878D01*
X150495324Y-124164879D01*
X150517583Y-124212614D01*
X150517589Y-124212623D01*
X150549750Y-124258555D01*
X150549758Y-124258565D01*
X150688847Y-124397653D01*
X150711107Y-124445389D01*
X150711400Y-124452100D01*
X150711400Y-124996300D01*
X150693385Y-125045795D01*
X150688847Y-125050747D01*
X149842947Y-125896647D01*
X149795211Y-125918907D01*
X149788500Y-125919200D01*
X148669185Y-125919200D01*
X148662141Y-125919354D01*
X148660520Y-125919424D01*
X148655431Y-125919646D01*
X148655430Y-125919647D01*
X148594222Y-125934624D01*
X148594221Y-125934624D01*
X148546486Y-125956883D01*
X148546477Y-125956889D01*
X148500545Y-125989050D01*
X148500535Y-125989058D01*
X147698662Y-126790930D01*
X147693869Y-126795935D01*
X147689415Y-126800789D01*
X147656744Y-126854486D01*
X147650134Y-126872554D01*
X147616209Y-126912844D01*
X147577578Y-126923095D01*
X146638550Y-126920107D01*
X146589113Y-126901935D01*
X146562923Y-126856237D01*
X146561795Y-126843234D01*
X146561065Y-126375723D01*
X146579001Y-126326205D01*
X146624575Y-126299798D01*
X146676460Y-126308863D01*
X146704855Y-126340047D01*
X146705441Y-126339671D01*
X146707668Y-126343136D01*
X146708103Y-126343614D01*
X146708417Y-126344302D01*
X146708418Y-126344303D01*
X146708419Y-126344305D01*
X146794382Y-126443512D01*
X146904810Y-126514481D01*
X146904812Y-126514481D01*
X146904813Y-126514482D01*
X147030765Y-126551465D01*
X147030769Y-126551465D01*
X147162031Y-126551465D01*
X147162035Y-126551465D01*
X147287987Y-126514482D01*
X147398418Y-126443512D01*
X147476811Y-126353040D01*
X147522838Y-126327432D01*
X147535004Y-126326465D01*
X147791682Y-126326465D01*
X147791683Y-126326465D01*
X147876769Y-126291221D01*
X147876771Y-126291218D01*
X147876773Y-126291218D01*
X148514738Y-125653253D01*
X148562474Y-125630993D01*
X148569185Y-125630700D01*
X149437447Y-125630700D01*
X149437448Y-125630700D01*
X149522534Y-125595456D01*
X149844393Y-125273596D01*
X149892127Y-125251337D01*
X149920530Y-125254162D01*
X149925765Y-125255700D01*
X149925767Y-125255700D01*
X150057031Y-125255700D01*
X150057035Y-125255700D01*
X150182987Y-125218717D01*
X150293418Y-125147747D01*
X150379381Y-125048540D01*
X150433912Y-124929133D01*
X150452594Y-124799200D01*
X150433912Y-124669267D01*
X150379381Y-124549860D01*
X150293418Y-124450653D01*
X150293416Y-124450652D01*
X150293417Y-124450652D01*
X150182989Y-124379683D01*
X150057035Y-124342700D01*
X149970742Y-124342700D01*
X149921247Y-124324685D01*
X149894912Y-124279071D01*
X149893742Y-124265700D01*
X149893742Y-123937922D01*
X149911757Y-123888427D01*
X149929110Y-123873146D01*
X149964260Y-123850558D01*
X150050223Y-123751351D01*
X150104754Y-123631944D01*
X150123436Y-123502011D01*
X150104754Y-123372078D01*
X150050223Y-123252671D01*
X149964260Y-123153464D01*
X149964258Y-123153463D01*
X149964259Y-123153463D01*
X149853831Y-123082494D01*
X149727877Y-123045511D01*
X149596607Y-123045511D01*
X149596604Y-123045511D01*
X149551592Y-123058728D01*
X149499027Y-123055387D01*
X149460908Y-123019039D01*
X149452900Y-122984847D01*
X149452900Y-120996792D01*
X149452899Y-120996782D01*
X149451982Y-120987846D01*
X149449534Y-120963987D01*
X149443182Y-120933364D01*
X149440490Y-120922349D01*
X149417684Y-120882183D01*
X149408911Y-120830248D01*
X149435574Y-120784824D01*
X149484211Y-120767165D01*
X150402471Y-120762035D01*
X150452064Y-120779773D01*
G37*
%TD.AperFunction*%
%TA.AperFunction,Conductor*%
G36*
X142990095Y-123602870D02*
G01*
X143020343Y-123645989D01*
X143022984Y-123665814D01*
X143029604Y-126694513D01*
X143011697Y-126744047D01*
X142992363Y-126760622D01*
X142991400Y-126761202D01*
X142991400Y-125949200D01*
X139501400Y-125949200D01*
X138291400Y-125949200D01*
X138291400Y-123949200D01*
X137152900Y-123949200D01*
X137152900Y-123670252D01*
X137170915Y-123620757D01*
X137216529Y-123594422D01*
X137243135Y-123594399D01*
X137278474Y-123600567D01*
X137278475Y-123600566D01*
X137278476Y-123600567D01*
X137298013Y-123600533D01*
X142914812Y-123590832D01*
X142928751Y-123590205D01*
X142937977Y-123589389D01*
X142939207Y-123589281D01*
X142990095Y-123602870D01*
G37*
%TD.AperFunction*%
%TA.AperFunction,Conductor*%
G36*
X138333400Y-111505419D02*
G01*
X138336523Y-111507322D01*
X138369813Y-111528717D01*
X138495765Y-111565700D01*
X138495769Y-111565700D01*
X138627033Y-111565700D01*
X138627035Y-111565700D01*
X138632265Y-111564164D01*
X138684828Y-111567502D01*
X138708407Y-111583597D01*
X139517347Y-112392537D01*
X139539607Y-112440273D01*
X139539900Y-112446984D01*
X139539900Y-112767985D01*
X139521885Y-112817480D01*
X139494002Y-112838424D01*
X139468811Y-112849547D01*
X139468810Y-112849547D01*
X139391748Y-112926608D01*
X139391747Y-112926610D01*
X139347727Y-113026304D01*
X139344900Y-113050681D01*
X139344900Y-113507718D01*
X139344901Y-113507719D01*
X139347727Y-113532092D01*
X139347728Y-113532097D01*
X139391747Y-113631789D01*
X139391751Y-113631795D01*
X139468806Y-113708850D01*
X139468807Y-113708850D01*
X139468809Y-113708852D01*
X139469921Y-113709342D01*
X139470907Y-113710289D01*
X139474695Y-113712884D01*
X139474265Y-113713511D01*
X139507924Y-113745811D01*
X139513595Y-113798176D01*
X139484280Y-113841935D01*
X139469928Y-113850222D01*
X139448812Y-113859546D01*
X139448810Y-113859547D01*
X139371748Y-113936608D01*
X139371747Y-113936610D01*
X139327727Y-114036304D01*
X139324900Y-114060681D01*
X139324900Y-114517718D01*
X139324901Y-114517719D01*
X139327727Y-114542092D01*
X139327728Y-114542097D01*
X139371747Y-114641789D01*
X139371751Y-114641795D01*
X139448804Y-114718848D01*
X139448807Y-114718850D01*
X139448809Y-114718852D01*
X139460867Y-114724176D01*
X139490870Y-114737424D01*
X139528871Y-114773896D01*
X139534538Y-114826261D01*
X139505219Y-114870018D01*
X139490871Y-114878301D01*
X139481662Y-114882368D01*
X139440935Y-114900351D01*
X139440933Y-114900352D01*
X139362552Y-114978733D01*
X139362550Y-114978737D01*
X139341839Y-115025643D01*
X139305367Y-115063644D01*
X139253002Y-115069311D01*
X139209245Y-115039992D01*
X139200961Y-115025643D01*
X139180249Y-114978735D01*
X139101865Y-114900351D01*
X139101864Y-114900350D01*
X139101862Y-114900349D01*
X139021929Y-114865055D01*
X138983928Y-114828583D01*
X138978261Y-114776218D01*
X139007580Y-114732461D01*
X139021927Y-114724178D01*
X139033991Y-114718852D01*
X139111052Y-114641791D01*
X139155072Y-114542095D01*
X139157900Y-114517719D01*
X139157899Y-114060682D01*
X139155072Y-114036305D01*
X139111052Y-113936609D01*
X139111050Y-113936607D01*
X139111048Y-113936604D01*
X139033995Y-113859551D01*
X139033989Y-113859547D01*
X138934295Y-113815527D01*
X138909919Y-113812700D01*
X138614184Y-113812700D01*
X138564689Y-113794685D01*
X138559737Y-113790147D01*
X138240453Y-113470863D01*
X138218193Y-113423127D01*
X138217900Y-113416416D01*
X138217900Y-111572103D01*
X138235915Y-111522608D01*
X138281529Y-111496273D01*
X138333400Y-111505419D01*
G37*
%TD.AperFunction*%
%TD*%
%TA.AperFunction,Conductor*%
%TO.N,B2*%
G36*
X141937525Y-118821077D02*
G01*
X141982937Y-118851421D01*
X142028586Y-118860501D01*
X142737400Y-118860501D01*
X142786895Y-118878516D01*
X142813230Y-118924130D01*
X142814400Y-118937501D01*
X142814400Y-119428169D01*
X142796385Y-119477664D01*
X142781671Y-119491170D01*
X141011322Y-120735201D01*
X140967051Y-120749200D01*
X136991400Y-120749200D01*
X136991400Y-126439200D01*
X138860043Y-127400000D01*
X139419787Y-127687804D01*
X139455566Y-127726457D01*
X139461576Y-127755991D01*
X139463662Y-128308642D01*
X139457806Y-128338390D01*
X139457581Y-128338932D01*
X139448500Y-128384588D01*
X139448500Y-130280988D01*
X139430485Y-130330483D01*
X139384871Y-130356818D01*
X139371338Y-130357988D01*
X135252617Y-130349328D01*
X135203160Y-130331209D01*
X135177725Y-130289528D01*
X135132446Y-130091945D01*
X135130500Y-130074745D01*
X135130500Y-127321162D01*
X135130499Y-127321153D01*
X135124012Y-127288540D01*
X135099737Y-127166503D01*
X135039394Y-127020821D01*
X135039393Y-127020819D01*
X135039392Y-127020817D01*
X134951790Y-126889712D01*
X134840287Y-126778209D01*
X134709182Y-126690607D01*
X134563498Y-126630263D01*
X134563493Y-126630262D01*
X134408846Y-126599500D01*
X134408842Y-126599500D01*
X134393443Y-126599500D01*
X134343948Y-126581485D01*
X134318389Y-126539700D01*
X134093346Y-125557691D01*
X134091400Y-125540491D01*
X134091400Y-118905954D01*
X134109415Y-118856459D01*
X134155029Y-118830124D01*
X134168146Y-118828954D01*
X140691016Y-118808101D01*
X141894748Y-118808101D01*
X141937525Y-118821077D01*
G37*
%TD.AperFunction*%
%TD*%
%TA.AperFunction,Conductor*%
%TO.N,A2*%
G36*
X153954078Y-118837222D02*
G01*
X153980426Y-118882829D01*
X153981600Y-118896020D01*
X153991400Y-122649200D01*
X153991400Y-122649256D01*
X154001393Y-127945762D01*
X154001098Y-127952635D01*
X153981748Y-128173228D01*
X153959478Y-128220960D01*
X153911737Y-128243209D01*
X153905043Y-128243500D01*
X153589586Y-128243500D01*
X153546451Y-128252080D01*
X153543937Y-128252580D01*
X153543934Y-128252581D01*
X153492170Y-128287168D01*
X153492168Y-128287170D01*
X153457581Y-128338934D01*
X153457580Y-128338937D01*
X153448500Y-128384588D01*
X153448500Y-130522500D01*
X153430485Y-130571995D01*
X153384871Y-130598330D01*
X153371500Y-130599500D01*
X151357588Y-130599500D01*
X151308093Y-130581485D01*
X151281758Y-130535871D01*
X151280590Y-130522984D01*
X151280502Y-130508970D01*
X151280500Y-130508486D01*
X151280500Y-127911313D01*
X151280500Y-127911309D01*
X151265016Y-127833470D01*
X151263541Y-127818956D01*
X151261305Y-127464279D01*
X151146221Y-127464279D01*
X151096726Y-127446264D01*
X151082199Y-127430058D01*
X151079464Y-127425965D01*
X151079463Y-127425964D01*
X151079457Y-127425957D01*
X150954036Y-127300537D01*
X150806550Y-127201988D01*
X150642667Y-127134106D01*
X150642662Y-127134105D01*
X150468695Y-127099500D01*
X150468691Y-127099500D01*
X150427595Y-127099500D01*
X150380000Y-127099500D01*
X150291309Y-127099500D01*
X150291304Y-127099500D01*
X150117337Y-127134105D01*
X150117332Y-127134106D01*
X149953449Y-127201988D01*
X149805963Y-127300537D01*
X149680542Y-127425957D01*
X149680536Y-127425964D01*
X149679021Y-127428232D01*
X149677801Y-127430056D01*
X149635328Y-127461202D01*
X149613779Y-127464279D01*
X149518999Y-127464279D01*
X149515923Y-127721503D01*
X149514450Y-127735604D01*
X149514106Y-127737334D01*
X149479500Y-127911309D01*
X149479500Y-127911313D01*
X149479500Y-130522500D01*
X149461485Y-130571995D01*
X149415871Y-130598330D01*
X149402500Y-130599500D01*
X147861487Y-130599500D01*
X147811992Y-130581485D01*
X147785657Y-130535871D01*
X147784487Y-130522374D01*
X147787986Y-128384588D01*
X147790319Y-126959435D01*
X147808414Y-126909974D01*
X147812855Y-126905134D01*
X148614738Y-126103253D01*
X148662474Y-126080993D01*
X148669185Y-126080700D01*
X149837447Y-126080700D01*
X149837448Y-126080700D01*
X149922534Y-126045456D01*
X149922536Y-126045454D01*
X149922538Y-126045453D01*
X150837653Y-125130338D01*
X150837654Y-125130336D01*
X150837656Y-125130334D01*
X150872900Y-125045248D01*
X150872900Y-124953151D01*
X150872900Y-124403152D01*
X150837656Y-124318066D01*
X150772534Y-124252944D01*
X150663953Y-124144363D01*
X150641693Y-124096627D01*
X150641400Y-124089916D01*
X150641400Y-120599200D01*
X150641398Y-120599199D01*
X148989590Y-120608427D01*
X148954725Y-120600299D01*
X147169830Y-119707852D01*
X147165883Y-119705733D01*
X146912321Y-119559934D01*
X146878393Y-119519645D01*
X146875182Y-119478163D01*
X146877400Y-119467014D01*
X146877400Y-118937501D01*
X146895415Y-118888006D01*
X146941029Y-118861671D01*
X146954400Y-118860501D01*
X147663210Y-118860501D01*
X147663214Y-118860501D01*
X147708863Y-118851421D01*
X147735063Y-118833914D01*
X147777817Y-118820936D01*
X153904579Y-118819221D01*
X153954078Y-118837222D01*
G37*
%TD.AperFunction*%
%TD*%
%TA.AperFunction,Conductor*%
%TO.N,GND*%
G36*
X138291400Y-125949200D02*
G01*
X139501400Y-125949200D01*
X142991400Y-125949200D01*
X142991400Y-126761202D01*
X142433948Y-127097315D01*
X142428010Y-127100895D01*
X141947988Y-127390321D01*
X141804823Y-127476641D01*
X141765064Y-127487700D01*
X139700800Y-127487700D01*
X139691121Y-127488122D01*
X139686717Y-127488315D01*
X139673349Y-127489485D01*
X139673345Y-127489486D01*
X139617042Y-127507239D01*
X139592544Y-127510791D01*
X139518258Y-127509494D01*
X139486207Y-127501887D01*
X138315767Y-126938520D01*
X138313953Y-126937617D01*
X137194691Y-126362127D01*
X137158911Y-126323474D01*
X137152900Y-126293649D01*
X137152900Y-123949200D01*
X138291400Y-123949200D01*
X138291400Y-125949200D01*
G37*
%TD.AperFunction*%
%TD*%
%TA.AperFunction,Conductor*%
%TO.N,B1*%
G36*
X144534495Y-119626115D02*
G01*
X144560830Y-119671729D01*
X144562000Y-119685100D01*
X144562000Y-120393914D01*
X144570196Y-120435117D01*
X144571080Y-120439562D01*
X144571081Y-120439565D01*
X144605668Y-120491329D01*
X144656982Y-120525616D01*
X144688127Y-120568092D01*
X144690162Y-120602259D01*
X144685192Y-120632172D01*
X144676254Y-121251625D01*
X144676236Y-121253920D01*
X144676236Y-121255794D01*
X144676249Y-121258001D01*
X144729894Y-125649698D01*
X144729900Y-125650638D01*
X144729900Y-127194169D01*
X144711885Y-127243664D01*
X144696702Y-127257497D01*
X143632906Y-127993289D01*
X143615729Y-128006986D01*
X143600314Y-128021096D01*
X143600130Y-128021263D01*
X143557364Y-128085664D01*
X143557360Y-128085671D01*
X143557211Y-128086088D01*
X143557037Y-128086313D01*
X143555274Y-128089826D01*
X143554603Y-128089489D01*
X143528671Y-128123308D01*
X143491400Y-128149199D01*
X143491399Y-128149200D01*
X143489653Y-128268691D01*
X143476685Y-128310342D01*
X143457581Y-128338933D01*
X143457580Y-128338937D01*
X143448804Y-128383062D01*
X143448500Y-128384588D01*
X143448500Y-130275800D01*
X143430485Y-130325295D01*
X143384871Y-130351630D01*
X143371500Y-130352800D01*
X141960600Y-130352800D01*
X139700800Y-130352800D01*
X139651305Y-130334785D01*
X139624970Y-130289171D01*
X139623800Y-130275800D01*
X139623800Y-128325944D01*
X139624149Y-128318619D01*
X139624940Y-128310342D01*
X139625161Y-128308032D01*
X139623800Y-127947457D01*
X139623800Y-127726200D01*
X139641815Y-127676705D01*
X139687429Y-127650370D01*
X139700800Y-127649200D01*
X141831401Y-127649200D01*
X142511400Y-127239200D01*
X143191400Y-126829200D01*
X143179465Y-121368362D01*
X143197372Y-121318829D01*
X143199371Y-121316530D01*
X143883653Y-120560335D01*
X143930220Y-120535723D01*
X143940747Y-120535000D01*
X143988709Y-120535000D01*
X143988713Y-120535000D01*
X144034362Y-120525920D01*
X144086129Y-120491330D01*
X144120719Y-120439563D01*
X144129799Y-120393914D01*
X144129799Y-119685100D01*
X144147814Y-119635605D01*
X144193428Y-119609270D01*
X144206799Y-119608100D01*
X144485000Y-119608100D01*
X144534495Y-119626115D01*
G37*
%TD.AperFunction*%
%TD*%
%TA.AperFunction,Conductor*%
%TO.N,A1*%
G36*
X145534496Y-119626115D02*
G01*
X145560831Y-119671729D01*
X145562001Y-119685100D01*
X145562001Y-120393914D01*
X145571081Y-120439562D01*
X145571082Y-120439565D01*
X145605669Y-120491329D01*
X145605671Y-120491331D01*
X145657435Y-120525918D01*
X145657438Y-120525920D01*
X145703087Y-120535000D01*
X145703091Y-120535000D01*
X145707140Y-120535000D01*
X145756635Y-120553015D01*
X145759858Y-120555877D01*
X146367174Y-121126440D01*
X146390911Y-121173459D01*
X146391451Y-121182439D01*
X146401399Y-127549199D01*
X146581367Y-127694635D01*
X146608540Y-127739756D01*
X146609185Y-127765482D01*
X146593805Y-127872453D01*
X146593805Y-127872455D01*
X146612487Y-128002388D01*
X146667018Y-128121795D01*
X146752981Y-128221002D01*
X146863409Y-128291971D01*
X146863411Y-128291971D01*
X146863412Y-128291972D01*
X146989364Y-128328955D01*
X146989368Y-128328955D01*
X147120630Y-128328955D01*
X147120634Y-128328955D01*
X147246586Y-128291972D01*
X147246595Y-128291965D01*
X147250494Y-128290186D01*
X147302999Y-128286007D01*
X147330885Y-128300336D01*
X147377412Y-128337936D01*
X147404585Y-128383057D01*
X147406013Y-128398212D01*
X147396584Y-130273778D01*
X147378321Y-130323182D01*
X147332575Y-130349287D01*
X147319794Y-130350391D01*
X146431000Y-130352800D01*
X146430972Y-130352800D01*
X143778232Y-130359019D01*
X143728695Y-130341120D01*
X143702252Y-130295568D01*
X143701052Y-130282367D01*
X143701013Y-130273778D01*
X143691583Y-128189785D01*
X143709373Y-128140212D01*
X143724774Y-128126115D01*
X144891400Y-127319200D01*
X144891400Y-125649200D01*
X144837736Y-121255936D01*
X144837737Y-121253982D01*
X144846675Y-120634504D01*
X144860790Y-120591172D01*
X144877485Y-120567554D01*
X144920765Y-120537536D01*
X144940362Y-120535000D01*
X144988710Y-120535000D01*
X144988714Y-120535000D01*
X145034363Y-120525920D01*
X145086130Y-120491330D01*
X145120720Y-120439563D01*
X145129800Y-120393914D01*
X145129800Y-119685100D01*
X145147815Y-119635605D01*
X145193429Y-119609270D01*
X145206800Y-119608100D01*
X145485001Y-119608100D01*
X145534496Y-119626115D01*
G37*
%TD.AperFunction*%
%TD*%
%TA.AperFunction,Conductor*%
%TO.N,POW_MOT*%
G36*
X142940992Y-119605217D02*
G01*
X142955486Y-119608100D01*
X143484999Y-119608100D01*
X143534494Y-119626115D01*
X143560829Y-119671729D01*
X143561999Y-119685100D01*
X143561999Y-120393914D01*
X143567447Y-120421303D01*
X143571079Y-120439565D01*
X143573981Y-120446569D01*
X143572001Y-120447388D01*
X143581400Y-120478367D01*
X143581400Y-120589482D01*
X143563385Y-120638977D01*
X143561435Y-120641212D01*
X143191417Y-121049180D01*
X143191404Y-121049195D01*
X143191400Y-121049200D01*
X143081370Y-121186738D01*
X142991400Y-121299200D01*
X142991400Y-123352332D01*
X142973385Y-123401827D01*
X142927771Y-123428162D01*
X142914533Y-123429332D01*
X137278195Y-123439067D01*
X137228669Y-123421138D01*
X137202255Y-123375569D01*
X137201063Y-123362405D01*
X137191738Y-121236311D01*
X137209535Y-121186738D01*
X137255034Y-121160202D01*
X137268501Y-121158973D01*
X140601400Y-121149200D01*
X140932655Y-120923587D01*
X140964254Y-120911131D01*
X140967047Y-120910700D01*
X140967051Y-120910700D01*
X141015743Y-120903185D01*
X141060014Y-120889186D01*
X141104176Y-120867339D01*
X142874525Y-119623308D01*
X142877694Y-119620757D01*
X142927543Y-119603754D01*
X142940992Y-119605217D01*
G37*
%TD.AperFunction*%
%TD*%
%TA.AperFunction,Conductor*%
%TO.N,POW_MOT*%
G36*
X146709222Y-119629447D02*
G01*
X147091400Y-119849200D01*
X149248835Y-120927917D01*
X149285048Y-120966165D01*
X149291400Y-120996788D01*
X149291400Y-123204171D01*
X149275777Y-123247093D01*
X149277240Y-123248034D01*
X149274264Y-123252665D01*
X149219730Y-123372079D01*
X149201048Y-123502010D01*
X149201048Y-123502011D01*
X149219730Y-123631943D01*
X149219730Y-123631944D01*
X149274260Y-123751351D01*
X149277238Y-123755984D01*
X149275517Y-123757089D01*
X149291390Y-123798619D01*
X149291400Y-123799850D01*
X149291400Y-124389916D01*
X149273385Y-124439411D01*
X149268847Y-124444363D01*
X149186563Y-124526647D01*
X149138827Y-124548907D01*
X149132116Y-124549200D01*
X146868400Y-124549200D01*
X146818905Y-124531185D01*
X146792570Y-124485571D01*
X146791400Y-124472200D01*
X146791400Y-121349201D01*
X146791400Y-121349200D01*
X146204332Y-120468598D01*
X146191400Y-120425886D01*
X146191400Y-119696200D01*
X146209415Y-119646705D01*
X146255029Y-119620370D01*
X146268400Y-119619200D01*
X146670841Y-119619200D01*
X146709222Y-119629447D01*
G37*
%TD.AperFunction*%
%TD*%
M02*
