%TF.GenerationSoftware,KiCad,Pcbnew,8.0.4*%
%TF.CreationDate,2024-09-25T00:08:57+05:30*%
%TF.ProjectId,NYSM.2_TMC2209_Stepper_driver,4e59534d-2e32-45f5-944d-43323230395f,rev?*%
%TF.SameCoordinates,Original*%
%TF.FileFunction,Soldermask,Top*%
%TF.FilePolarity,Negative*%
%FSLAX46Y46*%
G04 Gerber Fmt 4.6, Leading zero omitted, Abs format (unit mm)*
G04 Created by KiCad (PCBNEW 8.0.4) date 2024-09-25 00:08:57*
%MOMM*%
%LPD*%
G01*
G04 APERTURE LIST*
G04 Aperture macros list*
%AMRoundRect*
0 Rectangle with rounded corners*
0 $1 Rounding radius*
0 $2 $3 $4 $5 $6 $7 $8 $9 X,Y pos of 4 corners*
0 Add a 4 corners polygon primitive as box body*
4,1,4,$2,$3,$4,$5,$6,$7,$8,$9,$2,$3,0*
0 Add four circle primitives for the rounded corners*
1,1,$1+$1,$2,$3*
1,1,$1+$1,$4,$5*
1,1,$1+$1,$6,$7*
1,1,$1+$1,$8,$9*
0 Add four rect primitives between the rounded corners*
20,1,$1+$1,$2,$3,$4,$5,0*
20,1,$1+$1,$4,$5,$6,$7,0*
20,1,$1+$1,$6,$7,$8,$9,0*
20,1,$1+$1,$8,$9,$2,$3,0*%
G04 Aperture macros list end*
%ADD10C,5.703200*%
%ADD11RoundRect,0.101600X-0.175000X-1.250000X0.175000X-1.250000X0.175000X1.250000X-0.175000X1.250000X0*%
G04 APERTURE END LIST*
D10*
%TO.C,U2*%
X144780000Y-102400000D03*
D11*
X154030000Y-129650000D03*
X153530000Y-129650000D03*
X153030000Y-129650000D03*
X152530000Y-129650000D03*
X152030000Y-129650000D03*
X151530000Y-129650000D03*
X149030000Y-129650000D03*
X148530000Y-129650000D03*
X148030000Y-129650000D03*
X147530000Y-129650000D03*
X147030000Y-129650000D03*
X146530000Y-129650000D03*
X146030000Y-129650000D03*
X145530000Y-129650000D03*
X145030000Y-129650000D03*
X144530000Y-129650000D03*
X144030000Y-129650000D03*
X143530000Y-129650000D03*
X143030000Y-129650000D03*
X142530000Y-129650000D03*
X142030000Y-129650000D03*
X141530000Y-129650000D03*
X141030000Y-129650000D03*
X140530000Y-129650000D03*
X140030000Y-129650000D03*
X139530000Y-129650000D03*
X139030000Y-129650000D03*
X138530000Y-129650000D03*
X138030000Y-129650000D03*
X137530000Y-129650000D03*
X137030000Y-129650000D03*
X136530000Y-129650000D03*
X136030000Y-129650000D03*
X135530000Y-129650000D03*
%TD*%
G36*
X149734439Y-112468885D02*
G01*
X149780194Y-112521689D01*
X149791400Y-112573200D01*
X149791400Y-122825200D01*
X149771715Y-122892239D01*
X149718911Y-122937994D01*
X149667400Y-122949200D01*
X139915400Y-122949200D01*
X139848361Y-122929515D01*
X139802606Y-122876711D01*
X139791400Y-122825200D01*
X139791400Y-112573200D01*
X139811085Y-112506161D01*
X139863889Y-112460406D01*
X139915400Y-112449200D01*
X149667400Y-112449200D01*
X149734439Y-112468885D01*
G37*
M02*
