%TF.GenerationSoftware,KiCad,Pcbnew,8.0.4*%
%TF.CreationDate,2024-09-25T00:09:03+05:30*%
%TF.ProjectId,NYSM.2_TMC2209_Stepper_driver,4e59534d-2e32-45f5-944d-43323230395f,rev?*%
%TF.SameCoordinates,Original*%
%TF.FileFunction,Drillmap*%
%TF.FilePolarity,Positive*%
%FSLAX45Y45*%
G04 Gerber Fmt 4.5, Leading zero omitted, Abs format (unit mm)*
G04 Created by KiCad (PCBNEW 8.0.4) date 2024-09-25 00:09:03*
%MOMM*%
%LPD*%
G01*
G04 APERTURE LIST*
%ADD10C,0.050000*%
%ADD11C,0.200000*%
G04 APERTURE END LIST*
D10*
X13378000Y-10390000D02*
X13378000Y-12670000D01*
X13398000Y-12690000D02*
X13433000Y-12690000D01*
X13483000Y-12740000D02*
X13483000Y-13070000D01*
X13503000Y-13090000D02*
X14978000Y-13090000D01*
X14978000Y-12800000D02*
X14978000Y-13090000D01*
X15098000Y-12800000D02*
X15098000Y-13090000D01*
X15098000Y-13090000D02*
X15453000Y-13090000D01*
X15473000Y-13070000D02*
X15473000Y-12740000D01*
X15523000Y-12690000D02*
X15558000Y-12690000D01*
X15528000Y-10340000D02*
X13428000Y-10340000D01*
X15578000Y-12670000D02*
X15578000Y-10390000D01*
X13378000Y-10390000D02*
G75*
G02*
X13428000Y-10340000I50000J0D01*
G01*
X13398000Y-12690000D02*
G75*
G02*
X13378000Y-12670000I0J20000D01*
G01*
X13433000Y-12690000D02*
G75*
G02*
X13483000Y-12740000I0J-50000D01*
G01*
X13503000Y-13090000D02*
G75*
G02*
X13483000Y-13070000I0J20000D01*
G01*
X14978000Y-12800000D02*
G75*
G02*
X15038000Y-12740000I60000J0D01*
G01*
X15038000Y-12740000D02*
G75*
G02*
X15098000Y-12800000I0J-60000D01*
G01*
X15473000Y-12740000D02*
G75*
G02*
X15523000Y-12690000I50000J0D01*
G01*
X15473000Y-13070000D02*
G75*
G02*
X15453000Y-13090000I-20000J0D01*
G01*
X15528000Y-10340000D02*
G75*
G02*
X15578000Y-10390000I0J-50000D01*
G01*
X15578000Y-12670000D02*
G75*
G02*
X15558000Y-12690000I-20000J0D01*
G01*
D11*
X13636277Y-13403984D02*
X13636277Y-13203984D01*
X13636277Y-13203984D02*
X13683896Y-13203984D01*
X13683896Y-13203984D02*
X13712467Y-13213508D01*
X13712467Y-13213508D02*
X13731515Y-13232555D01*
X13731515Y-13232555D02*
X13741039Y-13251603D01*
X13741039Y-13251603D02*
X13750562Y-13289698D01*
X13750562Y-13289698D02*
X13750562Y-13318269D01*
X13750562Y-13318269D02*
X13741039Y-13356365D01*
X13741039Y-13356365D02*
X13731515Y-13375412D01*
X13731515Y-13375412D02*
X13712467Y-13394460D01*
X13712467Y-13394460D02*
X13683896Y-13403984D01*
X13683896Y-13403984D02*
X13636277Y-13403984D01*
X13836277Y-13403984D02*
X13836277Y-13270650D01*
X13836277Y-13308746D02*
X13845801Y-13289698D01*
X13845801Y-13289698D02*
X13855324Y-13280174D01*
X13855324Y-13280174D02*
X13874372Y-13270650D01*
X13874372Y-13270650D02*
X13893420Y-13270650D01*
X13960086Y-13403984D02*
X13960086Y-13270650D01*
X13960086Y-13203984D02*
X13950562Y-13213508D01*
X13950562Y-13213508D02*
X13960086Y-13223031D01*
X13960086Y-13223031D02*
X13969610Y-13213508D01*
X13969610Y-13213508D02*
X13960086Y-13203984D01*
X13960086Y-13203984D02*
X13960086Y-13223031D01*
X14083896Y-13403984D02*
X14064848Y-13394460D01*
X14064848Y-13394460D02*
X14055324Y-13375412D01*
X14055324Y-13375412D02*
X14055324Y-13203984D01*
X14188658Y-13403984D02*
X14169610Y-13394460D01*
X14169610Y-13394460D02*
X14160086Y-13375412D01*
X14160086Y-13375412D02*
X14160086Y-13203984D01*
X14417229Y-13403984D02*
X14417229Y-13203984D01*
X14417229Y-13203984D02*
X14483896Y-13346841D01*
X14483896Y-13346841D02*
X14550562Y-13203984D01*
X14550562Y-13203984D02*
X14550562Y-13403984D01*
X14731515Y-13403984D02*
X14731515Y-13299222D01*
X14731515Y-13299222D02*
X14721991Y-13280174D01*
X14721991Y-13280174D02*
X14702943Y-13270650D01*
X14702943Y-13270650D02*
X14664848Y-13270650D01*
X14664848Y-13270650D02*
X14645801Y-13280174D01*
X14731515Y-13394460D02*
X14712467Y-13403984D01*
X14712467Y-13403984D02*
X14664848Y-13403984D01*
X14664848Y-13403984D02*
X14645801Y-13394460D01*
X14645801Y-13394460D02*
X14636277Y-13375412D01*
X14636277Y-13375412D02*
X14636277Y-13356365D01*
X14636277Y-13356365D02*
X14645801Y-13337317D01*
X14645801Y-13337317D02*
X14664848Y-13327793D01*
X14664848Y-13327793D02*
X14712467Y-13327793D01*
X14712467Y-13327793D02*
X14731515Y-13318269D01*
X14826753Y-13270650D02*
X14826753Y-13470650D01*
X14826753Y-13280174D02*
X14845801Y-13270650D01*
X14845801Y-13270650D02*
X14883896Y-13270650D01*
X14883896Y-13270650D02*
X14902943Y-13280174D01*
X14902943Y-13280174D02*
X14912467Y-13289698D01*
X14912467Y-13289698D02*
X14921991Y-13308746D01*
X14921991Y-13308746D02*
X14921991Y-13365888D01*
X14921991Y-13365888D02*
X14912467Y-13384936D01*
X14912467Y-13384936D02*
X14902943Y-13394460D01*
X14902943Y-13394460D02*
X14883896Y-13403984D01*
X14883896Y-13403984D02*
X14845801Y-13403984D01*
X14845801Y-13403984D02*
X14826753Y-13394460D01*
X15007705Y-13384936D02*
X15017229Y-13394460D01*
X15017229Y-13394460D02*
X15007705Y-13403984D01*
X15007705Y-13403984D02*
X14998182Y-13394460D01*
X14998182Y-13394460D02*
X15007705Y-13384936D01*
X15007705Y-13384936D02*
X15007705Y-13403984D01*
X15007705Y-13280174D02*
X15017229Y-13289698D01*
X15017229Y-13289698D02*
X15007705Y-13299222D01*
X15007705Y-13299222D02*
X14998182Y-13289698D01*
X14998182Y-13289698D02*
X15007705Y-13280174D01*
X15007705Y-13280174D02*
X15007705Y-13299222D01*
M02*
