%TF.GenerationSoftware,KiCad,Pcbnew,8.0.4*%
%TF.CreationDate,2024-09-25T00:08:57+05:30*%
%TF.ProjectId,NYSM.2_TMC2209_Stepper_driver,4e59534d-2e32-45f5-944d-43323230395f,rev?*%
%TF.SameCoordinates,Original*%
%TF.FileFunction,Profile,NP*%
%FSLAX46Y46*%
G04 Gerber Fmt 4.6, Leading zero omitted, Abs format (unit mm)*
G04 Created by KiCad (PCBNEW 8.0.4) date 2024-09-25 00:08:57*
%MOMM*%
%LPD*%
G01*
G04 APERTURE LIST*
%TA.AperFunction,Profile*%
%ADD10C,0.050000*%
%TD*%
G04 APERTURE END LIST*
D10*
%TO.C,U2*%
X133780000Y-103900000D02*
X133780000Y-126700000D01*
X133980000Y-126900000D02*
X134330000Y-126900000D01*
X134830000Y-127400000D02*
X134830000Y-130700000D01*
X135030000Y-130900000D02*
X149780000Y-130900000D01*
X149780000Y-128000000D02*
X149780000Y-130900000D01*
X150980000Y-128000000D02*
X150980000Y-130900000D01*
X150980000Y-130900000D02*
X154530000Y-130900000D01*
X154730000Y-130700000D02*
X154730000Y-127400000D01*
X155230000Y-126900000D02*
X155580000Y-126900000D01*
X155280000Y-103400000D02*
X134280000Y-103400000D01*
X155780000Y-126700000D02*
X155780000Y-103900000D01*
X133780000Y-103900000D02*
G75*
G02*
X134280000Y-103400000I500001J-1D01*
G01*
X133980000Y-126900000D02*
G75*
G02*
X133780000Y-126700000I1J200001D01*
G01*
X134330000Y-126900000D02*
G75*
G02*
X134830000Y-127400000I-1J-500001D01*
G01*
X135030000Y-130900000D02*
G75*
G02*
X134830000Y-130700000I1J200001D01*
G01*
X149780000Y-128000000D02*
G75*
G02*
X150380000Y-127400000I600000J0D01*
G01*
X150380000Y-127400000D02*
G75*
G02*
X150980000Y-128000000I0J-600000D01*
G01*
X154730000Y-127400000D02*
G75*
G02*
X155230000Y-126900000I500000J0D01*
G01*
X154730000Y-130700000D02*
G75*
G02*
X154530000Y-130900000I-200000J0D01*
G01*
X155280000Y-103400000D02*
G75*
G02*
X155780000Y-103900000I0J-500000D01*
G01*
X155780000Y-126700000D02*
G75*
G02*
X155580000Y-126900000I-200000J0D01*
G01*
%TD*%
M02*
