%TF.GenerationSoftware,KiCad,Pcbnew,8.0.4*%
%TF.CreationDate,2024-09-25T00:08:57+05:30*%
%TF.ProjectId,NYSM.2_TMC2209_Stepper_driver,4e59534d-2e32-45f5-944d-43323230395f,rev?*%
%TF.SameCoordinates,Original*%
%TF.FileFunction,Legend,Top*%
%TF.FilePolarity,Positive*%
%FSLAX46Y46*%
G04 Gerber Fmt 4.6, Leading zero omitted, Abs format (unit mm)*
G04 Created by KiCad (PCBNEW 8.0.4) date 2024-09-25 00:08:57*
%MOMM*%
%LPD*%
G01*
G04 APERTURE LIST*
%ADD10C,0.153000*%
%ADD11C,0.000000*%
G04 APERTURE END LIST*
D10*
X135306344Y-125698543D02*
X134676344Y-125698543D01*
X134676344Y-125698543D02*
X134676344Y-125548543D01*
X134676344Y-125548543D02*
X134706344Y-125458543D01*
X134706344Y-125458543D02*
X134766344Y-125398543D01*
X134766344Y-125398543D02*
X134826344Y-125368543D01*
X134826344Y-125368543D02*
X134946344Y-125338543D01*
X134946344Y-125338543D02*
X135036344Y-125338543D01*
X135036344Y-125338543D02*
X135156344Y-125368543D01*
X135156344Y-125368543D02*
X135216344Y-125398543D01*
X135216344Y-125398543D02*
X135276344Y-125458543D01*
X135276344Y-125458543D02*
X135306344Y-125548543D01*
X135306344Y-125548543D02*
X135306344Y-125698543D01*
X135276344Y-124828543D02*
X135306344Y-124888543D01*
X135306344Y-124888543D02*
X135306344Y-125008543D01*
X135306344Y-125008543D02*
X135276344Y-125068543D01*
X135276344Y-125068543D02*
X135216344Y-125098543D01*
X135216344Y-125098543D02*
X134976344Y-125098543D01*
X134976344Y-125098543D02*
X134916344Y-125068543D01*
X134916344Y-125068543D02*
X134886344Y-125008543D01*
X134886344Y-125008543D02*
X134886344Y-124888543D01*
X134886344Y-124888543D02*
X134916344Y-124828543D01*
X134916344Y-124828543D02*
X134976344Y-124798543D01*
X134976344Y-124798543D02*
X135036344Y-124798543D01*
X135036344Y-124798543D02*
X135096344Y-125098543D01*
X135276344Y-124558543D02*
X135306344Y-124498543D01*
X135306344Y-124498543D02*
X135306344Y-124378543D01*
X135306344Y-124378543D02*
X135276344Y-124318543D01*
X135276344Y-124318543D02*
X135216344Y-124288543D01*
X135216344Y-124288543D02*
X135186344Y-124288543D01*
X135186344Y-124288543D02*
X135126344Y-124318543D01*
X135126344Y-124318543D02*
X135096344Y-124378543D01*
X135096344Y-124378543D02*
X135096344Y-124468543D01*
X135096344Y-124468543D02*
X135066344Y-124528543D01*
X135066344Y-124528543D02*
X135006344Y-124558543D01*
X135006344Y-124558543D02*
X134976344Y-124558543D01*
X134976344Y-124558543D02*
X134916344Y-124528543D01*
X134916344Y-124528543D02*
X134886344Y-124468543D01*
X134886344Y-124468543D02*
X134886344Y-124378543D01*
X134886344Y-124378543D02*
X134916344Y-124318543D01*
X135306344Y-124018543D02*
X134886344Y-124018543D01*
X134676344Y-124018543D02*
X134706344Y-124048543D01*
X134706344Y-124048543D02*
X134736344Y-124018543D01*
X134736344Y-124018543D02*
X134706344Y-123988543D01*
X134706344Y-123988543D02*
X134676344Y-124018543D01*
X134676344Y-124018543D02*
X134736344Y-124018543D01*
X134886344Y-123448543D02*
X135396344Y-123448543D01*
X135396344Y-123448543D02*
X135456344Y-123478543D01*
X135456344Y-123478543D02*
X135486344Y-123508543D01*
X135486344Y-123508543D02*
X135516344Y-123568543D01*
X135516344Y-123568543D02*
X135516344Y-123658543D01*
X135516344Y-123658543D02*
X135486344Y-123718543D01*
X135276344Y-123448543D02*
X135306344Y-123508543D01*
X135306344Y-123508543D02*
X135306344Y-123628543D01*
X135306344Y-123628543D02*
X135276344Y-123688543D01*
X135276344Y-123688543D02*
X135246344Y-123718543D01*
X135246344Y-123718543D02*
X135186344Y-123748543D01*
X135186344Y-123748543D02*
X135006344Y-123748543D01*
X135006344Y-123748543D02*
X134946344Y-123718543D01*
X134946344Y-123718543D02*
X134916344Y-123688543D01*
X134916344Y-123688543D02*
X134886344Y-123628543D01*
X134886344Y-123628543D02*
X134886344Y-123508543D01*
X134886344Y-123508543D02*
X134916344Y-123448543D01*
X134886344Y-123148543D02*
X135306344Y-123148543D01*
X134946344Y-123148543D02*
X134916344Y-123118543D01*
X134916344Y-123118543D02*
X134886344Y-123058543D01*
X134886344Y-123058543D02*
X134886344Y-122968543D01*
X134886344Y-122968543D02*
X134916344Y-122908543D01*
X134916344Y-122908543D02*
X134976344Y-122878543D01*
X134976344Y-122878543D02*
X135306344Y-122878543D01*
X135276344Y-122338543D02*
X135306344Y-122398543D01*
X135306344Y-122398543D02*
X135306344Y-122518543D01*
X135306344Y-122518543D02*
X135276344Y-122578543D01*
X135276344Y-122578543D02*
X135216344Y-122608543D01*
X135216344Y-122608543D02*
X134976344Y-122608543D01*
X134976344Y-122608543D02*
X134916344Y-122578543D01*
X134916344Y-122578543D02*
X134886344Y-122518543D01*
X134886344Y-122518543D02*
X134886344Y-122398543D01*
X134886344Y-122398543D02*
X134916344Y-122338543D01*
X134916344Y-122338543D02*
X134976344Y-122308543D01*
X134976344Y-122308543D02*
X135036344Y-122308543D01*
X135036344Y-122308543D02*
X135096344Y-122608543D01*
X135306344Y-121768543D02*
X134676344Y-121768543D01*
X135276344Y-121768543D02*
X135306344Y-121828543D01*
X135306344Y-121828543D02*
X135306344Y-121948543D01*
X135306344Y-121948543D02*
X135276344Y-122008543D01*
X135276344Y-122008543D02*
X135246344Y-122038543D01*
X135246344Y-122038543D02*
X135186344Y-122068543D01*
X135186344Y-122068543D02*
X135006344Y-122068543D01*
X135006344Y-122068543D02*
X134946344Y-122038543D01*
X134946344Y-122038543D02*
X134916344Y-122008543D01*
X134916344Y-122008543D02*
X134886344Y-121948543D01*
X134886344Y-121948543D02*
X134886344Y-121828543D01*
X134886344Y-121828543D02*
X134916344Y-121768543D01*
X135306344Y-120988543D02*
X134886344Y-120988543D01*
X134676344Y-120988543D02*
X134706344Y-121018543D01*
X134706344Y-121018543D02*
X134736344Y-120988543D01*
X134736344Y-120988543D02*
X134706344Y-120958543D01*
X134706344Y-120958543D02*
X134676344Y-120988543D01*
X134676344Y-120988543D02*
X134736344Y-120988543D01*
X134886344Y-120688543D02*
X135306344Y-120688543D01*
X134946344Y-120688543D02*
X134916344Y-120658543D01*
X134916344Y-120658543D02*
X134886344Y-120598543D01*
X134886344Y-120598543D02*
X134886344Y-120508543D01*
X134886344Y-120508543D02*
X134916344Y-120448543D01*
X134916344Y-120448543D02*
X134976344Y-120418543D01*
X134976344Y-120418543D02*
X135306344Y-120418543D01*
X135306344Y-119638543D02*
X134676344Y-119638543D01*
X134886344Y-119338543D02*
X135306344Y-119338543D01*
X134946344Y-119338543D02*
X134916344Y-119308543D01*
X134916344Y-119308543D02*
X134886344Y-119248543D01*
X134886344Y-119248543D02*
X134886344Y-119158543D01*
X134886344Y-119158543D02*
X134916344Y-119098543D01*
X134916344Y-119098543D02*
X134976344Y-119068543D01*
X134976344Y-119068543D02*
X135306344Y-119068543D01*
X135306344Y-118498543D02*
X134676344Y-118498543D01*
X135276344Y-118498543D02*
X135306344Y-118558543D01*
X135306344Y-118558543D02*
X135306344Y-118678543D01*
X135306344Y-118678543D02*
X135276344Y-118738543D01*
X135276344Y-118738543D02*
X135246344Y-118768543D01*
X135246344Y-118768543D02*
X135186344Y-118798543D01*
X135186344Y-118798543D02*
X135006344Y-118798543D01*
X135006344Y-118798543D02*
X134946344Y-118768543D01*
X134946344Y-118768543D02*
X134916344Y-118738543D01*
X134916344Y-118738543D02*
X134886344Y-118678543D01*
X134886344Y-118678543D02*
X134886344Y-118558543D01*
X134886344Y-118558543D02*
X134916344Y-118498543D01*
X135306344Y-118198543D02*
X134886344Y-118198543D01*
X134676344Y-118198543D02*
X134706344Y-118228543D01*
X134706344Y-118228543D02*
X134736344Y-118198543D01*
X134736344Y-118198543D02*
X134706344Y-118168543D01*
X134706344Y-118168543D02*
X134676344Y-118198543D01*
X134676344Y-118198543D02*
X134736344Y-118198543D01*
X135306344Y-117628543D02*
X134976344Y-117628543D01*
X134976344Y-117628543D02*
X134916344Y-117658543D01*
X134916344Y-117658543D02*
X134886344Y-117718543D01*
X134886344Y-117718543D02*
X134886344Y-117838543D01*
X134886344Y-117838543D02*
X134916344Y-117898543D01*
X135276344Y-117628543D02*
X135306344Y-117688543D01*
X135306344Y-117688543D02*
X135306344Y-117838543D01*
X135306344Y-117838543D02*
X135276344Y-117898543D01*
X135276344Y-117898543D02*
X135216344Y-117928543D01*
X135216344Y-117928543D02*
X135156344Y-117928543D01*
X135156344Y-117928543D02*
X135096344Y-117898543D01*
X135096344Y-117898543D02*
X135066344Y-117838543D01*
X135066344Y-117838543D02*
X135066344Y-117688543D01*
X135066344Y-117688543D02*
X135036344Y-117628543D01*
X154856344Y-120514200D02*
X154226344Y-120514200D01*
X154226344Y-120514200D02*
X154856344Y-120154200D01*
X154856344Y-120154200D02*
X154226344Y-120154200D01*
X154856344Y-119764200D02*
X154826344Y-119824200D01*
X154826344Y-119824200D02*
X154796344Y-119854200D01*
X154796344Y-119854200D02*
X154736344Y-119884200D01*
X154736344Y-119884200D02*
X154556344Y-119884200D01*
X154556344Y-119884200D02*
X154496344Y-119854200D01*
X154496344Y-119854200D02*
X154466344Y-119824200D01*
X154466344Y-119824200D02*
X154436344Y-119764200D01*
X154436344Y-119764200D02*
X154436344Y-119674200D01*
X154436344Y-119674200D02*
X154466344Y-119614200D01*
X154466344Y-119614200D02*
X154496344Y-119584200D01*
X154496344Y-119584200D02*
X154556344Y-119554200D01*
X154556344Y-119554200D02*
X154736344Y-119554200D01*
X154736344Y-119554200D02*
X154796344Y-119584200D01*
X154796344Y-119584200D02*
X154826344Y-119614200D01*
X154826344Y-119614200D02*
X154856344Y-119674200D01*
X154856344Y-119674200D02*
X154856344Y-119764200D01*
X154436344Y-119374200D02*
X154436344Y-119134200D01*
X154226344Y-119284200D02*
X154766344Y-119284200D01*
X154766344Y-119284200D02*
X154826344Y-119254200D01*
X154826344Y-119254200D02*
X154856344Y-119194200D01*
X154856344Y-119194200D02*
X154856344Y-119134200D01*
X154556344Y-118324200D02*
X154856344Y-118324200D01*
X154226344Y-118534200D02*
X154556344Y-118324200D01*
X154556344Y-118324200D02*
X154226344Y-118114200D01*
X154856344Y-117814200D02*
X154826344Y-117874200D01*
X154826344Y-117874200D02*
X154796344Y-117904200D01*
X154796344Y-117904200D02*
X154736344Y-117934200D01*
X154736344Y-117934200D02*
X154556344Y-117934200D01*
X154556344Y-117934200D02*
X154496344Y-117904200D01*
X154496344Y-117904200D02*
X154466344Y-117874200D01*
X154466344Y-117874200D02*
X154436344Y-117814200D01*
X154436344Y-117814200D02*
X154436344Y-117724200D01*
X154436344Y-117724200D02*
X154466344Y-117664200D01*
X154466344Y-117664200D02*
X154496344Y-117634200D01*
X154496344Y-117634200D02*
X154556344Y-117604200D01*
X154556344Y-117604200D02*
X154736344Y-117604200D01*
X154736344Y-117604200D02*
X154796344Y-117634200D01*
X154796344Y-117634200D02*
X154826344Y-117664200D01*
X154826344Y-117664200D02*
X154856344Y-117724200D01*
X154856344Y-117724200D02*
X154856344Y-117814200D01*
X154436344Y-117064200D02*
X154856344Y-117064200D01*
X154436344Y-117334200D02*
X154766344Y-117334200D01*
X154766344Y-117334200D02*
X154826344Y-117304200D01*
X154826344Y-117304200D02*
X154856344Y-117244200D01*
X154856344Y-117244200D02*
X154856344Y-117154200D01*
X154856344Y-117154200D02*
X154826344Y-117094200D01*
X154826344Y-117094200D02*
X154796344Y-117064200D01*
X154856344Y-116764200D02*
X154436344Y-116764200D01*
X154556344Y-116764200D02*
X154496344Y-116734200D01*
X154496344Y-116734200D02*
X154466344Y-116704200D01*
X154466344Y-116704200D02*
X154436344Y-116644200D01*
X154436344Y-116644200D02*
X154436344Y-116584200D01*
X154826344Y-115924200D02*
X154856344Y-115834200D01*
X154856344Y-115834200D02*
X154856344Y-115684200D01*
X154856344Y-115684200D02*
X154826344Y-115624200D01*
X154826344Y-115624200D02*
X154796344Y-115594200D01*
X154796344Y-115594200D02*
X154736344Y-115564200D01*
X154736344Y-115564200D02*
X154676344Y-115564200D01*
X154676344Y-115564200D02*
X154616344Y-115594200D01*
X154616344Y-115594200D02*
X154586344Y-115624200D01*
X154586344Y-115624200D02*
X154556344Y-115684200D01*
X154556344Y-115684200D02*
X154526344Y-115804200D01*
X154526344Y-115804200D02*
X154496344Y-115864200D01*
X154496344Y-115864200D02*
X154466344Y-115894200D01*
X154466344Y-115894200D02*
X154406344Y-115924200D01*
X154406344Y-115924200D02*
X154346344Y-115924200D01*
X154346344Y-115924200D02*
X154286344Y-115894200D01*
X154286344Y-115894200D02*
X154256344Y-115864200D01*
X154256344Y-115864200D02*
X154226344Y-115804200D01*
X154226344Y-115804200D02*
X154226344Y-115654200D01*
X154226344Y-115654200D02*
X154256344Y-115564200D01*
X154436344Y-115384200D02*
X154436344Y-115144200D01*
X154226344Y-115294200D02*
X154766344Y-115294200D01*
X154766344Y-115294200D02*
X154826344Y-115264200D01*
X154826344Y-115264200D02*
X154856344Y-115204200D01*
X154856344Y-115204200D02*
X154856344Y-115144200D01*
X154856344Y-114664200D02*
X154526344Y-114664200D01*
X154526344Y-114664200D02*
X154466344Y-114694200D01*
X154466344Y-114694200D02*
X154436344Y-114754200D01*
X154436344Y-114754200D02*
X154436344Y-114874200D01*
X154436344Y-114874200D02*
X154466344Y-114934200D01*
X154826344Y-114664200D02*
X154856344Y-114724200D01*
X154856344Y-114724200D02*
X154856344Y-114874200D01*
X154856344Y-114874200D02*
X154826344Y-114934200D01*
X154826344Y-114934200D02*
X154766344Y-114964200D01*
X154766344Y-114964200D02*
X154706344Y-114964200D01*
X154706344Y-114964200D02*
X154646344Y-114934200D01*
X154646344Y-114934200D02*
X154616344Y-114874200D01*
X154616344Y-114874200D02*
X154616344Y-114724200D01*
X154616344Y-114724200D02*
X154586344Y-114664200D01*
X154436344Y-114364200D02*
X154856344Y-114364200D01*
X154496344Y-114364200D02*
X154466344Y-114334200D01*
X154466344Y-114334200D02*
X154436344Y-114274200D01*
X154436344Y-114274200D02*
X154436344Y-114184200D01*
X154436344Y-114184200D02*
X154466344Y-114124200D01*
X154466344Y-114124200D02*
X154526344Y-114094200D01*
X154526344Y-114094200D02*
X154856344Y-114094200D01*
X154856344Y-113524200D02*
X154226344Y-113524200D01*
X154826344Y-113524200D02*
X154856344Y-113584200D01*
X154856344Y-113584200D02*
X154856344Y-113704200D01*
X154856344Y-113704200D02*
X154826344Y-113764200D01*
X154826344Y-113764200D02*
X154796344Y-113794200D01*
X154796344Y-113794200D02*
X154736344Y-113824200D01*
X154736344Y-113824200D02*
X154556344Y-113824200D01*
X154556344Y-113824200D02*
X154496344Y-113794200D01*
X154496344Y-113794200D02*
X154466344Y-113764200D01*
X154466344Y-113764200D02*
X154436344Y-113704200D01*
X154436344Y-113704200D02*
X154436344Y-113584200D01*
X154436344Y-113584200D02*
X154466344Y-113524200D01*
X154856344Y-112954200D02*
X154526344Y-112954200D01*
X154526344Y-112954200D02*
X154466344Y-112984200D01*
X154466344Y-112984200D02*
X154436344Y-113044200D01*
X154436344Y-113044200D02*
X154436344Y-113164200D01*
X154436344Y-113164200D02*
X154466344Y-113224200D01*
X154826344Y-112954200D02*
X154856344Y-113014200D01*
X154856344Y-113014200D02*
X154856344Y-113164200D01*
X154856344Y-113164200D02*
X154826344Y-113224200D01*
X154826344Y-113224200D02*
X154766344Y-113254200D01*
X154766344Y-113254200D02*
X154706344Y-113254200D01*
X154706344Y-113254200D02*
X154646344Y-113224200D01*
X154646344Y-113224200D02*
X154616344Y-113164200D01*
X154616344Y-113164200D02*
X154616344Y-113014200D01*
X154616344Y-113014200D02*
X154586344Y-112954200D01*
X154856344Y-112654200D02*
X154436344Y-112654200D01*
X154556344Y-112654200D02*
X154496344Y-112624200D01*
X154496344Y-112624200D02*
X154466344Y-112594200D01*
X154466344Y-112594200D02*
X154436344Y-112534200D01*
X154436344Y-112534200D02*
X154436344Y-112474200D01*
X154856344Y-111994200D02*
X154226344Y-111994200D01*
X154826344Y-111994200D02*
X154856344Y-112054200D01*
X154856344Y-112054200D02*
X154856344Y-112174200D01*
X154856344Y-112174200D02*
X154826344Y-112234200D01*
X154826344Y-112234200D02*
X154796344Y-112264200D01*
X154796344Y-112264200D02*
X154736344Y-112294200D01*
X154736344Y-112294200D02*
X154556344Y-112294200D01*
X154556344Y-112294200D02*
X154496344Y-112264200D01*
X154496344Y-112264200D02*
X154466344Y-112234200D01*
X154466344Y-112234200D02*
X154436344Y-112174200D01*
X154436344Y-112174200D02*
X154436344Y-112054200D01*
X154436344Y-112054200D02*
X154466344Y-111994200D01*
X154856344Y-111214200D02*
X154226344Y-111214200D01*
X154226344Y-111214200D02*
X154676344Y-111004200D01*
X154676344Y-111004200D02*
X154226344Y-110794200D01*
X154226344Y-110794200D02*
X154856344Y-110794200D01*
X154796344Y-110494200D02*
X154826344Y-110464200D01*
X154826344Y-110464200D02*
X154856344Y-110494200D01*
X154856344Y-110494200D02*
X154826344Y-110524200D01*
X154826344Y-110524200D02*
X154796344Y-110494200D01*
X154796344Y-110494200D02*
X154856344Y-110494200D01*
X154286344Y-110224200D02*
X154256344Y-110194200D01*
X154256344Y-110194200D02*
X154226344Y-110134200D01*
X154226344Y-110134200D02*
X154226344Y-109984200D01*
X154226344Y-109984200D02*
X154256344Y-109924200D01*
X154256344Y-109924200D02*
X154286344Y-109894200D01*
X154286344Y-109894200D02*
X154346344Y-109864200D01*
X154346344Y-109864200D02*
X154406344Y-109864200D01*
X154406344Y-109864200D02*
X154496344Y-109894200D01*
X154496344Y-109894200D02*
X154856344Y-110254200D01*
X154856344Y-110254200D02*
X154856344Y-109864200D01*
X154856344Y-109114200D02*
X154436344Y-109114200D01*
X154496344Y-109114200D02*
X154466344Y-109084200D01*
X154466344Y-109084200D02*
X154436344Y-109024200D01*
X154436344Y-109024200D02*
X154436344Y-108934200D01*
X154436344Y-108934200D02*
X154466344Y-108874200D01*
X154466344Y-108874200D02*
X154526344Y-108844200D01*
X154526344Y-108844200D02*
X154856344Y-108844200D01*
X154526344Y-108844200D02*
X154466344Y-108814200D01*
X154466344Y-108814200D02*
X154436344Y-108754200D01*
X154436344Y-108754200D02*
X154436344Y-108664200D01*
X154436344Y-108664200D02*
X154466344Y-108604200D01*
X154466344Y-108604200D02*
X154526344Y-108574200D01*
X154526344Y-108574200D02*
X154856344Y-108574200D01*
X154856344Y-108184200D02*
X154826344Y-108244200D01*
X154826344Y-108244200D02*
X154796344Y-108274200D01*
X154796344Y-108274200D02*
X154736344Y-108304200D01*
X154736344Y-108304200D02*
X154556344Y-108304200D01*
X154556344Y-108304200D02*
X154496344Y-108274200D01*
X154496344Y-108274200D02*
X154466344Y-108244200D01*
X154466344Y-108244200D02*
X154436344Y-108184200D01*
X154436344Y-108184200D02*
X154436344Y-108094200D01*
X154436344Y-108094200D02*
X154466344Y-108034200D01*
X154466344Y-108034200D02*
X154496344Y-108004200D01*
X154496344Y-108004200D02*
X154556344Y-107974200D01*
X154556344Y-107974200D02*
X154736344Y-107974200D01*
X154736344Y-107974200D02*
X154796344Y-108004200D01*
X154796344Y-108004200D02*
X154826344Y-108034200D01*
X154826344Y-108034200D02*
X154856344Y-108094200D01*
X154856344Y-108094200D02*
X154856344Y-108184200D01*
X154856344Y-107434200D02*
X154226344Y-107434200D01*
X154826344Y-107434200D02*
X154856344Y-107494200D01*
X154856344Y-107494200D02*
X154856344Y-107614200D01*
X154856344Y-107614200D02*
X154826344Y-107674200D01*
X154826344Y-107674200D02*
X154796344Y-107704200D01*
X154796344Y-107704200D02*
X154736344Y-107734200D01*
X154736344Y-107734200D02*
X154556344Y-107734200D01*
X154556344Y-107734200D02*
X154496344Y-107704200D01*
X154496344Y-107704200D02*
X154466344Y-107674200D01*
X154466344Y-107674200D02*
X154436344Y-107614200D01*
X154436344Y-107614200D02*
X154436344Y-107494200D01*
X154436344Y-107494200D02*
X154466344Y-107434200D01*
X154436344Y-106864200D02*
X154856344Y-106864200D01*
X154436344Y-107134200D02*
X154766344Y-107134200D01*
X154766344Y-107134200D02*
X154826344Y-107104200D01*
X154826344Y-107104200D02*
X154856344Y-107044200D01*
X154856344Y-107044200D02*
X154856344Y-106954200D01*
X154856344Y-106954200D02*
X154826344Y-106894200D01*
X154826344Y-106894200D02*
X154796344Y-106864200D01*
X154856344Y-106474200D02*
X154826344Y-106534200D01*
X154826344Y-106534200D02*
X154766344Y-106564200D01*
X154766344Y-106564200D02*
X154226344Y-106564200D01*
X154826344Y-105994200D02*
X154856344Y-106054200D01*
X154856344Y-106054200D02*
X154856344Y-106174200D01*
X154856344Y-106174200D02*
X154826344Y-106234200D01*
X154826344Y-106234200D02*
X154766344Y-106264200D01*
X154766344Y-106264200D02*
X154526344Y-106264200D01*
X154526344Y-106264200D02*
X154466344Y-106234200D01*
X154466344Y-106234200D02*
X154436344Y-106174200D01*
X154436344Y-106174200D02*
X154436344Y-106054200D01*
X154436344Y-106054200D02*
X154466344Y-105994200D01*
X154466344Y-105994200D02*
X154526344Y-105964200D01*
X154526344Y-105964200D02*
X154586344Y-105964200D01*
X154586344Y-105964200D02*
X154646344Y-106264200D01*
X154826344Y-105724200D02*
X154856344Y-105664200D01*
X154856344Y-105664200D02*
X154856344Y-105544200D01*
X154856344Y-105544200D02*
X154826344Y-105484200D01*
X154826344Y-105484200D02*
X154766344Y-105454200D01*
X154766344Y-105454200D02*
X154736344Y-105454200D01*
X154736344Y-105454200D02*
X154676344Y-105484200D01*
X154676344Y-105484200D02*
X154646344Y-105544200D01*
X154646344Y-105544200D02*
X154646344Y-105634200D01*
X154646344Y-105634200D02*
X154616344Y-105694200D01*
X154616344Y-105694200D02*
X154556344Y-105724200D01*
X154556344Y-105724200D02*
X154526344Y-105724200D01*
X154526344Y-105724200D02*
X154466344Y-105694200D01*
X154466344Y-105694200D02*
X154436344Y-105634200D01*
X154436344Y-105634200D02*
X154436344Y-105544200D01*
X154436344Y-105544200D02*
X154466344Y-105484200D01*
X150956344Y-119398543D02*
X150326344Y-119398543D01*
X150626344Y-119398543D02*
X150626344Y-119038543D01*
X150956344Y-119038543D02*
X150326344Y-119038543D01*
X150926344Y-118498543D02*
X150956344Y-118558543D01*
X150956344Y-118558543D02*
X150956344Y-118678543D01*
X150956344Y-118678543D02*
X150926344Y-118738543D01*
X150926344Y-118738543D02*
X150866344Y-118768543D01*
X150866344Y-118768543D02*
X150626344Y-118768543D01*
X150626344Y-118768543D02*
X150566344Y-118738543D01*
X150566344Y-118738543D02*
X150536344Y-118678543D01*
X150536344Y-118678543D02*
X150536344Y-118558543D01*
X150536344Y-118558543D02*
X150566344Y-118498543D01*
X150566344Y-118498543D02*
X150626344Y-118468543D01*
X150626344Y-118468543D02*
X150686344Y-118468543D01*
X150686344Y-118468543D02*
X150746344Y-118768543D01*
X150956344Y-117928543D02*
X150626344Y-117928543D01*
X150626344Y-117928543D02*
X150566344Y-117958543D01*
X150566344Y-117958543D02*
X150536344Y-118018543D01*
X150536344Y-118018543D02*
X150536344Y-118138543D01*
X150536344Y-118138543D02*
X150566344Y-118198543D01*
X150926344Y-117928543D02*
X150956344Y-117988543D01*
X150956344Y-117988543D02*
X150956344Y-118138543D01*
X150956344Y-118138543D02*
X150926344Y-118198543D01*
X150926344Y-118198543D02*
X150866344Y-118228543D01*
X150866344Y-118228543D02*
X150806344Y-118228543D01*
X150806344Y-118228543D02*
X150746344Y-118198543D01*
X150746344Y-118198543D02*
X150716344Y-118138543D01*
X150716344Y-118138543D02*
X150716344Y-117988543D01*
X150716344Y-117988543D02*
X150686344Y-117928543D01*
X150536344Y-117718543D02*
X150536344Y-117478543D01*
X150326344Y-117628543D02*
X150866344Y-117628543D01*
X150866344Y-117628543D02*
X150926344Y-117598543D01*
X150926344Y-117598543D02*
X150956344Y-117538543D01*
X150956344Y-117538543D02*
X150956344Y-117478543D01*
X150926344Y-117298543D02*
X150956344Y-117238543D01*
X150956344Y-117238543D02*
X150956344Y-117118543D01*
X150956344Y-117118543D02*
X150926344Y-117058543D01*
X150926344Y-117058543D02*
X150866344Y-117028543D01*
X150866344Y-117028543D02*
X150836344Y-117028543D01*
X150836344Y-117028543D02*
X150776344Y-117058543D01*
X150776344Y-117058543D02*
X150746344Y-117118543D01*
X150746344Y-117118543D02*
X150746344Y-117208543D01*
X150746344Y-117208543D02*
X150716344Y-117268543D01*
X150716344Y-117268543D02*
X150656344Y-117298543D01*
X150656344Y-117298543D02*
X150626344Y-117298543D01*
X150626344Y-117298543D02*
X150566344Y-117268543D01*
X150566344Y-117268543D02*
X150536344Y-117208543D01*
X150536344Y-117208543D02*
X150536344Y-117118543D01*
X150536344Y-117118543D02*
X150566344Y-117058543D01*
X150956344Y-116758543D02*
X150536344Y-116758543D01*
X150326344Y-116758543D02*
X150356344Y-116788543D01*
X150356344Y-116788543D02*
X150386344Y-116758543D01*
X150386344Y-116758543D02*
X150356344Y-116728543D01*
X150356344Y-116728543D02*
X150326344Y-116758543D01*
X150326344Y-116758543D02*
X150386344Y-116758543D01*
X150536344Y-116458543D02*
X150956344Y-116458543D01*
X150596344Y-116458543D02*
X150566344Y-116428543D01*
X150566344Y-116428543D02*
X150536344Y-116368543D01*
X150536344Y-116368543D02*
X150536344Y-116278543D01*
X150536344Y-116278543D02*
X150566344Y-116218543D01*
X150566344Y-116218543D02*
X150626344Y-116188543D01*
X150626344Y-116188543D02*
X150956344Y-116188543D01*
X150956344Y-115888543D02*
X150326344Y-115888543D01*
X150716344Y-115828543D02*
X150956344Y-115648543D01*
X150536344Y-115648543D02*
X150776344Y-115888543D01*
X139186344Y-110658543D02*
X139606344Y-110538543D01*
X139606344Y-110538543D02*
X139306344Y-110418543D01*
X139306344Y-110418543D02*
X139606344Y-110298543D01*
X139606344Y-110298543D02*
X139186344Y-110178543D01*
X139606344Y-109938543D02*
X139186344Y-109938543D01*
X138976344Y-109938543D02*
X139006344Y-109968543D01*
X139006344Y-109968543D02*
X139036344Y-109938543D01*
X139036344Y-109938543D02*
X139006344Y-109908543D01*
X139006344Y-109908543D02*
X138976344Y-109938543D01*
X138976344Y-109938543D02*
X139036344Y-109938543D01*
X139186344Y-109728543D02*
X139186344Y-109488543D01*
X138976344Y-109638543D02*
X139516344Y-109638543D01*
X139516344Y-109638543D02*
X139576344Y-109608543D01*
X139576344Y-109608543D02*
X139606344Y-109548543D01*
X139606344Y-109548543D02*
X139606344Y-109488543D01*
X139606344Y-109278543D02*
X138976344Y-109278543D01*
X139606344Y-109008543D02*
X139276344Y-109008543D01*
X139276344Y-109008543D02*
X139216344Y-109038543D01*
X139216344Y-109038543D02*
X139186344Y-109098543D01*
X139186344Y-109098543D02*
X139186344Y-109188543D01*
X139186344Y-109188543D02*
X139216344Y-109248543D01*
X139216344Y-109248543D02*
X139246344Y-109278543D01*
X138976344Y-108318543D02*
X138976344Y-107958543D01*
X139606344Y-108138543D02*
X138976344Y-108138543D01*
X139606344Y-107748543D02*
X138976344Y-107748543D01*
X138976344Y-107748543D02*
X139426344Y-107538543D01*
X139426344Y-107538543D02*
X138976344Y-107328543D01*
X138976344Y-107328543D02*
X139606344Y-107328543D01*
X139546344Y-106668543D02*
X139576344Y-106698543D01*
X139576344Y-106698543D02*
X139606344Y-106788543D01*
X139606344Y-106788543D02*
X139606344Y-106848543D01*
X139606344Y-106848543D02*
X139576344Y-106938543D01*
X139576344Y-106938543D02*
X139516344Y-106998543D01*
X139516344Y-106998543D02*
X139456344Y-107028543D01*
X139456344Y-107028543D02*
X139336344Y-107058543D01*
X139336344Y-107058543D02*
X139246344Y-107058543D01*
X139246344Y-107058543D02*
X139126344Y-107028543D01*
X139126344Y-107028543D02*
X139066344Y-106998543D01*
X139066344Y-106998543D02*
X139006344Y-106938543D01*
X139006344Y-106938543D02*
X138976344Y-106848543D01*
X138976344Y-106848543D02*
X138976344Y-106788543D01*
X138976344Y-106788543D02*
X139006344Y-106698543D01*
X139006344Y-106698543D02*
X139036344Y-106668543D01*
X139036344Y-106428543D02*
X139006344Y-106398543D01*
X139006344Y-106398543D02*
X138976344Y-106338543D01*
X138976344Y-106338543D02*
X138976344Y-106188543D01*
X138976344Y-106188543D02*
X139006344Y-106128543D01*
X139006344Y-106128543D02*
X139036344Y-106098543D01*
X139036344Y-106098543D02*
X139096344Y-106068543D01*
X139096344Y-106068543D02*
X139156344Y-106068543D01*
X139156344Y-106068543D02*
X139246344Y-106098543D01*
X139246344Y-106098543D02*
X139606344Y-106458543D01*
X139606344Y-106458543D02*
X139606344Y-106068543D01*
X139036344Y-105828543D02*
X139006344Y-105798543D01*
X139006344Y-105798543D02*
X138976344Y-105738543D01*
X138976344Y-105738543D02*
X138976344Y-105588543D01*
X138976344Y-105588543D02*
X139006344Y-105528543D01*
X139006344Y-105528543D02*
X139036344Y-105498543D01*
X139036344Y-105498543D02*
X139096344Y-105468543D01*
X139096344Y-105468543D02*
X139156344Y-105468543D01*
X139156344Y-105468543D02*
X139246344Y-105498543D01*
X139246344Y-105498543D02*
X139606344Y-105858543D01*
X139606344Y-105858543D02*
X139606344Y-105468543D01*
X138976344Y-105078543D02*
X138976344Y-105018543D01*
X138976344Y-105018543D02*
X139006344Y-104958543D01*
X139006344Y-104958543D02*
X139036344Y-104928543D01*
X139036344Y-104928543D02*
X139096344Y-104898543D01*
X139096344Y-104898543D02*
X139216344Y-104868543D01*
X139216344Y-104868543D02*
X139366344Y-104868543D01*
X139366344Y-104868543D02*
X139486344Y-104898543D01*
X139486344Y-104898543D02*
X139546344Y-104928543D01*
X139546344Y-104928543D02*
X139576344Y-104958543D01*
X139576344Y-104958543D02*
X139606344Y-105018543D01*
X139606344Y-105018543D02*
X139606344Y-105078543D01*
X139606344Y-105078543D02*
X139576344Y-105138543D01*
X139576344Y-105138543D02*
X139546344Y-105168543D01*
X139546344Y-105168543D02*
X139486344Y-105198543D01*
X139486344Y-105198543D02*
X139366344Y-105228543D01*
X139366344Y-105228543D02*
X139216344Y-105228543D01*
X139216344Y-105228543D02*
X139096344Y-105198543D01*
X139096344Y-105198543D02*
X139036344Y-105168543D01*
X139036344Y-105168543D02*
X139006344Y-105138543D01*
X139006344Y-105138543D02*
X138976344Y-105078543D01*
X139606344Y-104568543D02*
X139606344Y-104448543D01*
X139606344Y-104448543D02*
X139576344Y-104388543D01*
X139576344Y-104388543D02*
X139546344Y-104358543D01*
X139546344Y-104358543D02*
X139456344Y-104298543D01*
X139456344Y-104298543D02*
X139336344Y-104268543D01*
X139336344Y-104268543D02*
X139096344Y-104268543D01*
X139096344Y-104268543D02*
X139036344Y-104298543D01*
X139036344Y-104298543D02*
X139006344Y-104328543D01*
X139006344Y-104328543D02*
X138976344Y-104388543D01*
X138976344Y-104388543D02*
X138976344Y-104508543D01*
X138976344Y-104508543D02*
X139006344Y-104568543D01*
X139006344Y-104568543D02*
X139036344Y-104598543D01*
X139036344Y-104598543D02*
X139096344Y-104628543D01*
X139096344Y-104628543D02*
X139246344Y-104628543D01*
X139246344Y-104628543D02*
X139306344Y-104598543D01*
X139306344Y-104598543D02*
X139336344Y-104568543D01*
X139336344Y-104568543D02*
X139366344Y-104508543D01*
X139366344Y-104508543D02*
X139366344Y-104388543D01*
X139366344Y-104388543D02*
X139336344Y-104328543D01*
X139336344Y-104328543D02*
X139306344Y-104298543D01*
X139306344Y-104298543D02*
X139246344Y-104268543D01*
X135363549Y-110748543D02*
X134733549Y-110748543D01*
X134733549Y-110748543D02*
X135363549Y-110388543D01*
X135363549Y-110388543D02*
X134733549Y-110388543D01*
X135063549Y-109968543D02*
X135363549Y-109968543D01*
X134733549Y-110178543D02*
X135063549Y-109968543D01*
X135063549Y-109968543D02*
X134733549Y-109758543D01*
X135333549Y-109578543D02*
X135363549Y-109488543D01*
X135363549Y-109488543D02*
X135363549Y-109338543D01*
X135363549Y-109338543D02*
X135333549Y-109278543D01*
X135333549Y-109278543D02*
X135303549Y-109248543D01*
X135303549Y-109248543D02*
X135243549Y-109218543D01*
X135243549Y-109218543D02*
X135183549Y-109218543D01*
X135183549Y-109218543D02*
X135123549Y-109248543D01*
X135123549Y-109248543D02*
X135093549Y-109278543D01*
X135093549Y-109278543D02*
X135063549Y-109338543D01*
X135063549Y-109338543D02*
X135033549Y-109458543D01*
X135033549Y-109458543D02*
X135003549Y-109518543D01*
X135003549Y-109518543D02*
X134973549Y-109548543D01*
X134973549Y-109548543D02*
X134913549Y-109578543D01*
X134913549Y-109578543D02*
X134853549Y-109578543D01*
X134853549Y-109578543D02*
X134793549Y-109548543D01*
X134793549Y-109548543D02*
X134763549Y-109518543D01*
X134763549Y-109518543D02*
X134733549Y-109458543D01*
X134733549Y-109458543D02*
X134733549Y-109308543D01*
X134733549Y-109308543D02*
X134763549Y-109218543D01*
X135363549Y-108948543D02*
X134733549Y-108948543D01*
X134733549Y-108948543D02*
X135183549Y-108738543D01*
X135183549Y-108738543D02*
X134733549Y-108528543D01*
X134733549Y-108528543D02*
X135363549Y-108528543D01*
X135303549Y-108228543D02*
X135333549Y-108198543D01*
X135333549Y-108198543D02*
X135363549Y-108228543D01*
X135363549Y-108228543D02*
X135333549Y-108258543D01*
X135333549Y-108258543D02*
X135303549Y-108228543D01*
X135303549Y-108228543D02*
X135363549Y-108228543D01*
X134793549Y-107958543D02*
X134763549Y-107928543D01*
X134763549Y-107928543D02*
X134733549Y-107868543D01*
X134733549Y-107868543D02*
X134733549Y-107718543D01*
X134733549Y-107718543D02*
X134763549Y-107658543D01*
X134763549Y-107658543D02*
X134793549Y-107628543D01*
X134793549Y-107628543D02*
X134853549Y-107598543D01*
X134853549Y-107598543D02*
X134913549Y-107598543D01*
X134913549Y-107598543D02*
X135003549Y-107628543D01*
X135003549Y-107628543D02*
X135363549Y-107988543D01*
X135363549Y-107988543D02*
X135363549Y-107598543D01*
X135747814Y-110628543D02*
X135747814Y-110508543D01*
X135747814Y-110508543D02*
X135777814Y-110448543D01*
X135777814Y-110448543D02*
X135837814Y-110388543D01*
X135837814Y-110388543D02*
X135957814Y-110358543D01*
X135957814Y-110358543D02*
X136167814Y-110358543D01*
X136167814Y-110358543D02*
X136287814Y-110388543D01*
X136287814Y-110388543D02*
X136347814Y-110448543D01*
X136347814Y-110448543D02*
X136377814Y-110508543D01*
X136377814Y-110508543D02*
X136377814Y-110628543D01*
X136377814Y-110628543D02*
X136347814Y-110688543D01*
X136347814Y-110688543D02*
X136287814Y-110748543D01*
X136287814Y-110748543D02*
X136167814Y-110778543D01*
X136167814Y-110778543D02*
X135957814Y-110778543D01*
X135957814Y-110778543D02*
X135837814Y-110748543D01*
X135837814Y-110748543D02*
X135777814Y-110688543D01*
X135777814Y-110688543D02*
X135747814Y-110628543D01*
X135957814Y-110088543D02*
X136587814Y-110088543D01*
X135987814Y-110088543D02*
X135957814Y-110028543D01*
X135957814Y-110028543D02*
X135957814Y-109908543D01*
X135957814Y-109908543D02*
X135987814Y-109848543D01*
X135987814Y-109848543D02*
X136017814Y-109818543D01*
X136017814Y-109818543D02*
X136077814Y-109788543D01*
X136077814Y-109788543D02*
X136257814Y-109788543D01*
X136257814Y-109788543D02*
X136317814Y-109818543D01*
X136317814Y-109818543D02*
X136347814Y-109848543D01*
X136347814Y-109848543D02*
X136377814Y-109908543D01*
X136377814Y-109908543D02*
X136377814Y-110028543D01*
X136377814Y-110028543D02*
X136347814Y-110088543D01*
X136347814Y-109278543D02*
X136377814Y-109338543D01*
X136377814Y-109338543D02*
X136377814Y-109458543D01*
X136377814Y-109458543D02*
X136347814Y-109518543D01*
X136347814Y-109518543D02*
X136287814Y-109548543D01*
X136287814Y-109548543D02*
X136047814Y-109548543D01*
X136047814Y-109548543D02*
X135987814Y-109518543D01*
X135987814Y-109518543D02*
X135957814Y-109458543D01*
X135957814Y-109458543D02*
X135957814Y-109338543D01*
X135957814Y-109338543D02*
X135987814Y-109278543D01*
X135987814Y-109278543D02*
X136047814Y-109248543D01*
X136047814Y-109248543D02*
X136107814Y-109248543D01*
X136107814Y-109248543D02*
X136167814Y-109548543D01*
X135957814Y-108978543D02*
X136377814Y-108978543D01*
X136017814Y-108978543D02*
X135987814Y-108948543D01*
X135987814Y-108948543D02*
X135957814Y-108888543D01*
X135957814Y-108888543D02*
X135957814Y-108798543D01*
X135957814Y-108798543D02*
X135987814Y-108738543D01*
X135987814Y-108738543D02*
X136047814Y-108708543D01*
X136047814Y-108708543D02*
X136377814Y-108708543D01*
X136347814Y-107958543D02*
X136377814Y-107868543D01*
X136377814Y-107868543D02*
X136377814Y-107718543D01*
X136377814Y-107718543D02*
X136347814Y-107658543D01*
X136347814Y-107658543D02*
X136317814Y-107628543D01*
X136317814Y-107628543D02*
X136257814Y-107598543D01*
X136257814Y-107598543D02*
X136197814Y-107598543D01*
X136197814Y-107598543D02*
X136137814Y-107628543D01*
X136137814Y-107628543D02*
X136107814Y-107658543D01*
X136107814Y-107658543D02*
X136077814Y-107718543D01*
X136077814Y-107718543D02*
X136047814Y-107838543D01*
X136047814Y-107838543D02*
X136017814Y-107898543D01*
X136017814Y-107898543D02*
X135987814Y-107928543D01*
X135987814Y-107928543D02*
X135927814Y-107958543D01*
X135927814Y-107958543D02*
X135867814Y-107958543D01*
X135867814Y-107958543D02*
X135807814Y-107928543D01*
X135807814Y-107928543D02*
X135777814Y-107898543D01*
X135777814Y-107898543D02*
X135747814Y-107838543D01*
X135747814Y-107838543D02*
X135747814Y-107688543D01*
X135747814Y-107688543D02*
X135777814Y-107598543D01*
X136377814Y-107238543D02*
X136347814Y-107298543D01*
X136347814Y-107298543D02*
X136317814Y-107328543D01*
X136317814Y-107328543D02*
X136257814Y-107358543D01*
X136257814Y-107358543D02*
X136077814Y-107358543D01*
X136077814Y-107358543D02*
X136017814Y-107328543D01*
X136017814Y-107328543D02*
X135987814Y-107298543D01*
X135987814Y-107298543D02*
X135957814Y-107238543D01*
X135957814Y-107238543D02*
X135957814Y-107148543D01*
X135957814Y-107148543D02*
X135987814Y-107088543D01*
X135987814Y-107088543D02*
X136017814Y-107058543D01*
X136017814Y-107058543D02*
X136077814Y-107028543D01*
X136077814Y-107028543D02*
X136257814Y-107028543D01*
X136257814Y-107028543D02*
X136317814Y-107058543D01*
X136317814Y-107058543D02*
X136347814Y-107088543D01*
X136347814Y-107088543D02*
X136377814Y-107148543D01*
X136377814Y-107148543D02*
X136377814Y-107238543D01*
X135957814Y-106488543D02*
X136377814Y-106488543D01*
X135957814Y-106758543D02*
X136287814Y-106758543D01*
X136287814Y-106758543D02*
X136347814Y-106728543D01*
X136347814Y-106728543D02*
X136377814Y-106668543D01*
X136377814Y-106668543D02*
X136377814Y-106578543D01*
X136377814Y-106578543D02*
X136347814Y-106518543D01*
X136347814Y-106518543D02*
X136317814Y-106488543D01*
X136377814Y-106188543D02*
X135957814Y-106188543D01*
X136077814Y-106188543D02*
X136017814Y-106158543D01*
X136017814Y-106158543D02*
X135987814Y-106128543D01*
X135987814Y-106128543D02*
X135957814Y-106068543D01*
X135957814Y-106068543D02*
X135957814Y-106008543D01*
X136347814Y-105528543D02*
X136377814Y-105588543D01*
X136377814Y-105588543D02*
X136377814Y-105708543D01*
X136377814Y-105708543D02*
X136347814Y-105768543D01*
X136347814Y-105768543D02*
X136317814Y-105798543D01*
X136317814Y-105798543D02*
X136257814Y-105828543D01*
X136257814Y-105828543D02*
X136077814Y-105828543D01*
X136077814Y-105828543D02*
X136017814Y-105798543D01*
X136017814Y-105798543D02*
X135987814Y-105768543D01*
X135987814Y-105768543D02*
X135957814Y-105708543D01*
X135957814Y-105708543D02*
X135957814Y-105588543D01*
X135957814Y-105588543D02*
X135987814Y-105528543D01*
X136347814Y-105018543D02*
X136377814Y-105078543D01*
X136377814Y-105078543D02*
X136377814Y-105198543D01*
X136377814Y-105198543D02*
X136347814Y-105258543D01*
X136347814Y-105258543D02*
X136287814Y-105288543D01*
X136287814Y-105288543D02*
X136047814Y-105288543D01*
X136047814Y-105288543D02*
X135987814Y-105258543D01*
X135987814Y-105258543D02*
X135957814Y-105198543D01*
X135957814Y-105198543D02*
X135957814Y-105078543D01*
X135957814Y-105078543D02*
X135987814Y-105018543D01*
X135987814Y-105018543D02*
X136047814Y-104988543D01*
X136047814Y-104988543D02*
X136107814Y-104988543D01*
X136107814Y-104988543D02*
X136167814Y-105288543D01*
X137392079Y-110748543D02*
X136762079Y-110748543D01*
X136762079Y-110748543D02*
X137212079Y-110538543D01*
X137212079Y-110538543D02*
X136762079Y-110328543D01*
X136762079Y-110328543D02*
X137392079Y-110328543D01*
X137392079Y-109938543D02*
X137362079Y-109998543D01*
X137362079Y-109998543D02*
X137332079Y-110028543D01*
X137332079Y-110028543D02*
X137272079Y-110058543D01*
X137272079Y-110058543D02*
X137092079Y-110058543D01*
X137092079Y-110058543D02*
X137032079Y-110028543D01*
X137032079Y-110028543D02*
X137002079Y-109998543D01*
X137002079Y-109998543D02*
X136972079Y-109938543D01*
X136972079Y-109938543D02*
X136972079Y-109848543D01*
X136972079Y-109848543D02*
X137002079Y-109788543D01*
X137002079Y-109788543D02*
X137032079Y-109758543D01*
X137032079Y-109758543D02*
X137092079Y-109728543D01*
X137092079Y-109728543D02*
X137272079Y-109728543D01*
X137272079Y-109728543D02*
X137332079Y-109758543D01*
X137332079Y-109758543D02*
X137362079Y-109788543D01*
X137362079Y-109788543D02*
X137392079Y-109848543D01*
X137392079Y-109848543D02*
X137392079Y-109938543D01*
X137392079Y-109188543D02*
X136762079Y-109188543D01*
X137362079Y-109188543D02*
X137392079Y-109248543D01*
X137392079Y-109248543D02*
X137392079Y-109368543D01*
X137392079Y-109368543D02*
X137362079Y-109428543D01*
X137362079Y-109428543D02*
X137332079Y-109458543D01*
X137332079Y-109458543D02*
X137272079Y-109488543D01*
X137272079Y-109488543D02*
X137092079Y-109488543D01*
X137092079Y-109488543D02*
X137032079Y-109458543D01*
X137032079Y-109458543D02*
X137002079Y-109428543D01*
X137002079Y-109428543D02*
X136972079Y-109368543D01*
X136972079Y-109368543D02*
X136972079Y-109248543D01*
X136972079Y-109248543D02*
X137002079Y-109188543D01*
X136972079Y-108618543D02*
X137392079Y-108618543D01*
X136972079Y-108888543D02*
X137302079Y-108888543D01*
X137302079Y-108888543D02*
X137362079Y-108858543D01*
X137362079Y-108858543D02*
X137392079Y-108798543D01*
X137392079Y-108798543D02*
X137392079Y-108708543D01*
X137392079Y-108708543D02*
X137362079Y-108648543D01*
X137362079Y-108648543D02*
X137332079Y-108618543D01*
X137392079Y-108228543D02*
X137362079Y-108288543D01*
X137362079Y-108288543D02*
X137302079Y-108318543D01*
X137302079Y-108318543D02*
X136762079Y-108318543D01*
X137392079Y-107718543D02*
X137062079Y-107718543D01*
X137062079Y-107718543D02*
X137002079Y-107748543D01*
X137002079Y-107748543D02*
X136972079Y-107808543D01*
X136972079Y-107808543D02*
X136972079Y-107928543D01*
X136972079Y-107928543D02*
X137002079Y-107988543D01*
X137362079Y-107718543D02*
X137392079Y-107778543D01*
X137392079Y-107778543D02*
X137392079Y-107928543D01*
X137392079Y-107928543D02*
X137362079Y-107988543D01*
X137362079Y-107988543D02*
X137302079Y-108018543D01*
X137302079Y-108018543D02*
X137242079Y-108018543D01*
X137242079Y-108018543D02*
X137182079Y-107988543D01*
X137182079Y-107988543D02*
X137152079Y-107928543D01*
X137152079Y-107928543D02*
X137152079Y-107778543D01*
X137152079Y-107778543D02*
X137122079Y-107718543D01*
X137392079Y-107418543D02*
X136972079Y-107418543D01*
X137092079Y-107418543D02*
X137032079Y-107388543D01*
X137032079Y-107388543D02*
X137002079Y-107358543D01*
X137002079Y-107358543D02*
X136972079Y-107298543D01*
X136972079Y-107298543D02*
X136972079Y-107238543D01*
X138376344Y-110778543D02*
X138406344Y-110688543D01*
X138406344Y-110688543D02*
X138406344Y-110538543D01*
X138406344Y-110538543D02*
X138376344Y-110478543D01*
X138376344Y-110478543D02*
X138346344Y-110448543D01*
X138346344Y-110448543D02*
X138286344Y-110418543D01*
X138286344Y-110418543D02*
X138226344Y-110418543D01*
X138226344Y-110418543D02*
X138166344Y-110448543D01*
X138166344Y-110448543D02*
X138136344Y-110478543D01*
X138136344Y-110478543D02*
X138106344Y-110538543D01*
X138106344Y-110538543D02*
X138076344Y-110658543D01*
X138076344Y-110658543D02*
X138046344Y-110718543D01*
X138046344Y-110718543D02*
X138016344Y-110748543D01*
X138016344Y-110748543D02*
X137956344Y-110778543D01*
X137956344Y-110778543D02*
X137896344Y-110778543D01*
X137896344Y-110778543D02*
X137836344Y-110748543D01*
X137836344Y-110748543D02*
X137806344Y-110718543D01*
X137806344Y-110718543D02*
X137776344Y-110658543D01*
X137776344Y-110658543D02*
X137776344Y-110508543D01*
X137776344Y-110508543D02*
X137806344Y-110418543D01*
X137986344Y-110238543D02*
X137986344Y-109998543D01*
X137776344Y-110148543D02*
X138316344Y-110148543D01*
X138316344Y-110148543D02*
X138376344Y-110118543D01*
X138376344Y-110118543D02*
X138406344Y-110058543D01*
X138406344Y-110058543D02*
X138406344Y-109998543D01*
X138376344Y-109548543D02*
X138406344Y-109608543D01*
X138406344Y-109608543D02*
X138406344Y-109728543D01*
X138406344Y-109728543D02*
X138376344Y-109788543D01*
X138376344Y-109788543D02*
X138316344Y-109818543D01*
X138316344Y-109818543D02*
X138076344Y-109818543D01*
X138076344Y-109818543D02*
X138016344Y-109788543D01*
X138016344Y-109788543D02*
X137986344Y-109728543D01*
X137986344Y-109728543D02*
X137986344Y-109608543D01*
X137986344Y-109608543D02*
X138016344Y-109548543D01*
X138016344Y-109548543D02*
X138076344Y-109518543D01*
X138076344Y-109518543D02*
X138136344Y-109518543D01*
X138136344Y-109518543D02*
X138196344Y-109818543D01*
X137986344Y-109248543D02*
X138616344Y-109248543D01*
X138016344Y-109248543D02*
X137986344Y-109188543D01*
X137986344Y-109188543D02*
X137986344Y-109068543D01*
X137986344Y-109068543D02*
X138016344Y-109008543D01*
X138016344Y-109008543D02*
X138046344Y-108978543D01*
X138046344Y-108978543D02*
X138106344Y-108948543D01*
X138106344Y-108948543D02*
X138286344Y-108948543D01*
X138286344Y-108948543D02*
X138346344Y-108978543D01*
X138346344Y-108978543D02*
X138376344Y-109008543D01*
X138376344Y-109008543D02*
X138406344Y-109068543D01*
X138406344Y-109068543D02*
X138406344Y-109188543D01*
X138406344Y-109188543D02*
X138376344Y-109248543D01*
X137986344Y-108678543D02*
X138616344Y-108678543D01*
X138016344Y-108678543D02*
X137986344Y-108618543D01*
X137986344Y-108618543D02*
X137986344Y-108498543D01*
X137986344Y-108498543D02*
X138016344Y-108438543D01*
X138016344Y-108438543D02*
X138046344Y-108408543D01*
X138046344Y-108408543D02*
X138106344Y-108378543D01*
X138106344Y-108378543D02*
X138286344Y-108378543D01*
X138286344Y-108378543D02*
X138346344Y-108408543D01*
X138346344Y-108408543D02*
X138376344Y-108438543D01*
X138376344Y-108438543D02*
X138406344Y-108498543D01*
X138406344Y-108498543D02*
X138406344Y-108618543D01*
X138406344Y-108618543D02*
X138376344Y-108678543D01*
X138376344Y-107868543D02*
X138406344Y-107928543D01*
X138406344Y-107928543D02*
X138406344Y-108048543D01*
X138406344Y-108048543D02*
X138376344Y-108108543D01*
X138376344Y-108108543D02*
X138316344Y-108138543D01*
X138316344Y-108138543D02*
X138076344Y-108138543D01*
X138076344Y-108138543D02*
X138016344Y-108108543D01*
X138016344Y-108108543D02*
X137986344Y-108048543D01*
X137986344Y-108048543D02*
X137986344Y-107928543D01*
X137986344Y-107928543D02*
X138016344Y-107868543D01*
X138016344Y-107868543D02*
X138076344Y-107838543D01*
X138076344Y-107838543D02*
X138136344Y-107838543D01*
X138136344Y-107838543D02*
X138196344Y-108138543D01*
X138406344Y-107568543D02*
X137986344Y-107568543D01*
X138106344Y-107568543D02*
X138046344Y-107538543D01*
X138046344Y-107538543D02*
X138016344Y-107508543D01*
X138016344Y-107508543D02*
X137986344Y-107448543D01*
X137986344Y-107448543D02*
X137986344Y-107388543D01*
X138406344Y-106698543D02*
X137776344Y-106698543D01*
X137776344Y-106698543D02*
X137776344Y-106548543D01*
X137776344Y-106548543D02*
X137806344Y-106458543D01*
X137806344Y-106458543D02*
X137866344Y-106398543D01*
X137866344Y-106398543D02*
X137926344Y-106368543D01*
X137926344Y-106368543D02*
X138046344Y-106338543D01*
X138046344Y-106338543D02*
X138136344Y-106338543D01*
X138136344Y-106338543D02*
X138256344Y-106368543D01*
X138256344Y-106368543D02*
X138316344Y-106398543D01*
X138316344Y-106398543D02*
X138376344Y-106458543D01*
X138376344Y-106458543D02*
X138406344Y-106548543D01*
X138406344Y-106548543D02*
X138406344Y-106698543D01*
X138406344Y-106068543D02*
X137986344Y-106068543D01*
X138106344Y-106068543D02*
X138046344Y-106038543D01*
X138046344Y-106038543D02*
X138016344Y-106008543D01*
X138016344Y-106008543D02*
X137986344Y-105948543D01*
X137986344Y-105948543D02*
X137986344Y-105888543D01*
X138406344Y-105678543D02*
X137986344Y-105678543D01*
X137776344Y-105678543D02*
X137806344Y-105708543D01*
X137806344Y-105708543D02*
X137836344Y-105678543D01*
X137836344Y-105678543D02*
X137806344Y-105648543D01*
X137806344Y-105648543D02*
X137776344Y-105678543D01*
X137776344Y-105678543D02*
X137836344Y-105678543D01*
X137986344Y-105438543D02*
X138406344Y-105288543D01*
X138406344Y-105288543D02*
X137986344Y-105138543D01*
X138376344Y-104658543D02*
X138406344Y-104718543D01*
X138406344Y-104718543D02*
X138406344Y-104838543D01*
X138406344Y-104838543D02*
X138376344Y-104898543D01*
X138376344Y-104898543D02*
X138316344Y-104928543D01*
X138316344Y-104928543D02*
X138076344Y-104928543D01*
X138076344Y-104928543D02*
X138016344Y-104898543D01*
X138016344Y-104898543D02*
X137986344Y-104838543D01*
X137986344Y-104838543D02*
X137986344Y-104718543D01*
X137986344Y-104718543D02*
X138016344Y-104658543D01*
X138016344Y-104658543D02*
X138076344Y-104628543D01*
X138076344Y-104628543D02*
X138136344Y-104628543D01*
X138136344Y-104628543D02*
X138196344Y-104928543D01*
X138406344Y-104358543D02*
X137986344Y-104358543D01*
X138106344Y-104358543D02*
X138046344Y-104328543D01*
X138046344Y-104328543D02*
X138016344Y-104298543D01*
X138016344Y-104298543D02*
X137986344Y-104238543D01*
X137986344Y-104238543D02*
X137986344Y-104178543D01*
D11*
%TO.C,G\u002A\u002A\u002A*%
G36*
X153472508Y-106914494D02*
G01*
X153467870Y-106994810D01*
X153456046Y-107050548D01*
X153447433Y-107064071D01*
X153440380Y-107096706D01*
X153460720Y-107153106D01*
X153496255Y-107268752D01*
X153478987Y-107382744D01*
X153447805Y-107445485D01*
X153365940Y-107546645D01*
X153266553Y-107601351D01*
X153145704Y-107616792D01*
X153142899Y-107616496D01*
X153041139Y-107605744D01*
X152961647Y-107567280D01*
X152942464Y-107552205D01*
X152887859Y-107511695D01*
X152850509Y-107505214D01*
X152814176Y-107525299D01*
X152753592Y-107550232D01*
X152671487Y-107562664D01*
X152657471Y-107562979D01*
X152577398Y-107553158D01*
X152509984Y-107516118D01*
X152460813Y-107471496D01*
X152401317Y-107402281D01*
X152382594Y-107355966D01*
X153103043Y-107355966D01*
X153131372Y-107374009D01*
X153142899Y-107374631D01*
X153204662Y-107360720D01*
X153228888Y-107312254D01*
X153230347Y-107286145D01*
X153225695Y-107250991D01*
X153201920Y-107253668D01*
X153171281Y-107272752D01*
X153117145Y-107319343D01*
X153103043Y-107355966D01*
X152382594Y-107355966D01*
X152374742Y-107336543D01*
X152369330Y-107262228D01*
X152389077Y-107135521D01*
X152450610Y-107040660D01*
X152531067Y-106984329D01*
X152614636Y-106948217D01*
X152663978Y-106949496D01*
X152687127Y-106992240D01*
X152692211Y-107066048D01*
X152683905Y-107156605D01*
X152658105Y-107200344D01*
X152651851Y-107203460D01*
X152617397Y-107234408D01*
X152615994Y-107272311D01*
X152647256Y-107293593D01*
X152653327Y-107293911D01*
X152695282Y-107279511D01*
X152765993Y-107241658D01*
X152850563Y-107188370D01*
X152855128Y-107185281D01*
X152939280Y-107125613D01*
X152987407Y-107081392D01*
X153009372Y-107039955D01*
X153015038Y-106988641D01*
X153015092Y-106979938D01*
X153015092Y-106883224D01*
X153129446Y-106898679D01*
X153218512Y-106901872D01*
X153298041Y-106878997D01*
X153358154Y-106847274D01*
X153472508Y-106780414D01*
X153472508Y-106914494D01*
G37*
G36*
X153022006Y-105446139D02*
G01*
X153165194Y-105488367D01*
X153292581Y-105574194D01*
X153391627Y-105696872D01*
X153454161Y-105843361D01*
X153472508Y-105978765D01*
X153472508Y-106083106D01*
X153311067Y-106083106D01*
X153221620Y-106081723D01*
X153173330Y-106073992D01*
X153153550Y-106054539D01*
X153149633Y-106017988D01*
X153149626Y-106014503D01*
X153134873Y-105931689D01*
X153097957Y-105849944D01*
X153049894Y-105790667D01*
X153027340Y-105776938D01*
X152913193Y-105755840D01*
X152817003Y-105782366D01*
X152744550Y-105851725D01*
X152701612Y-105959123D01*
X152692211Y-106054863D01*
X152692211Y-106163826D01*
X153472508Y-106163826D01*
X153472508Y-106487822D01*
X152927645Y-106480538D01*
X152382783Y-106473254D01*
X152374571Y-106284907D01*
X152376780Y-106099269D01*
X152397876Y-105922961D01*
X152435288Y-105770128D01*
X152486444Y-105654915D01*
X152490142Y-105649130D01*
X152587444Y-105546974D01*
X152717101Y-105477047D01*
X152866245Y-105442414D01*
X153022006Y-105446139D01*
G37*
G36*
X145606641Y-107314091D02*
G01*
X145641045Y-107340098D01*
X145685237Y-107347724D01*
X145734720Y-107357224D01*
X145750262Y-107374631D01*
X145727306Y-107395107D01*
X145685237Y-107401538D01*
X145629966Y-107413905D01*
X145606641Y-107435172D01*
X145597938Y-107434683D01*
X145593303Y-107391437D01*
X145593070Y-107374631D01*
X145596248Y-107322115D01*
X145604136Y-107309502D01*
X145606641Y-107314091D01*
G37*
G36*
X146106345Y-107757198D02*
G01*
X146130703Y-107775828D01*
X146146428Y-107789499D01*
X146159591Y-107805866D01*
X146170347Y-107829375D01*
X146178846Y-107864471D01*
X146185242Y-107915600D01*
X146189687Y-107987206D01*
X146192333Y-108083735D01*
X146193334Y-108209631D01*
X146192842Y-108369341D01*
X146191009Y-108567308D01*
X146187987Y-108807979D01*
X146183930Y-109095799D01*
X146181571Y-109258106D01*
X146181444Y-109588559D01*
X146191744Y-109868503D01*
X146212897Y-110100303D01*
X146245330Y-110286327D01*
X146289468Y-110428939D01*
X146345738Y-110530508D01*
X146414566Y-110593398D01*
X146422931Y-110598061D01*
X146505329Y-110619988D01*
X146632637Y-110625554D01*
X146798892Y-110615938D01*
X146998130Y-110592320D01*
X147224388Y-110555879D01*
X147471700Y-110507795D01*
X147734104Y-110449247D01*
X148005636Y-110381414D01*
X148280331Y-110305476D01*
X148552225Y-110222613D01*
X148815356Y-110134002D01*
X148871448Y-110113864D01*
X149160675Y-110002482D01*
X149463671Y-109874450D01*
X149768456Y-109735519D01*
X150063045Y-109591441D01*
X150335457Y-109447968D01*
X150573707Y-109310851D01*
X150669905Y-109250607D01*
X150783178Y-109178805D01*
X150862364Y-109133528D01*
X150917498Y-109110501D01*
X150958620Y-109105444D01*
X150992786Y-109113016D01*
X151037247Y-109135670D01*
X151060439Y-109174380D01*
X151071122Y-109246145D01*
X151072660Y-109268003D01*
X151074239Y-109346454D01*
X151060268Y-109400808D01*
X151021437Y-109452742D01*
X150972522Y-109501125D01*
X150891236Y-109566119D01*
X150767675Y-109648682D01*
X150608970Y-109745051D01*
X150422251Y-109851465D01*
X150214650Y-109964163D01*
X149993297Y-110079384D01*
X149765322Y-110193365D01*
X149537858Y-110302346D01*
X149318034Y-110402565D01*
X149112981Y-110490260D01*
X149046342Y-110517171D01*
X148701767Y-110645447D01*
X148346604Y-110762010D01*
X147989809Y-110864725D01*
X147640342Y-110951453D01*
X147307161Y-111020058D01*
X146999223Y-111068401D01*
X146725486Y-111094345D01*
X146611279Y-111098193D01*
X146406799Y-111092777D01*
X146246350Y-111068121D01*
X146121833Y-111018335D01*
X146025147Y-110937531D01*
X145948195Y-110819820D01*
X145882875Y-110659315D01*
X145846526Y-110542207D01*
X145809740Y-110397562D01*
X145775784Y-110235013D01*
X145751371Y-110087071D01*
X145749394Y-110071776D01*
X145738804Y-109951174D01*
X145730800Y-109788151D01*
X145725385Y-109594037D01*
X145722560Y-109380165D01*
X145722329Y-109157863D01*
X145724694Y-108938464D01*
X145729658Y-108733297D01*
X145737223Y-108553693D01*
X145747392Y-108410984D01*
X145749009Y-108394736D01*
X145770801Y-108205513D01*
X145792976Y-108061911D01*
X145817795Y-107955770D01*
X145847517Y-107878931D01*
X145884403Y-107823234D01*
X145915862Y-107792316D01*
X145988945Y-107740187D01*
X146046503Y-107728937D01*
X146106345Y-107757198D01*
G37*
G36*
X153472508Y-110954347D02*
G01*
X152927645Y-110947063D01*
X152382783Y-110939780D01*
X152366517Y-110657258D01*
X153472508Y-110657258D01*
X153472508Y-110954347D01*
G37*
G36*
X148518893Y-107841558D02*
G01*
X148601078Y-107868111D01*
X148717505Y-107908740D01*
X148860319Y-107960474D01*
X149021663Y-108020345D01*
X149193683Y-108085385D01*
X149368521Y-108152625D01*
X149538323Y-108219097D01*
X149695232Y-108281831D01*
X149831392Y-108337860D01*
X149932884Y-108381511D01*
X150069223Y-108449485D01*
X150173765Y-108516508D01*
X150242352Y-108578426D01*
X150270828Y-108631084D01*
X150255035Y-108670329D01*
X150233614Y-108682039D01*
X150196287Y-108682001D01*
X150115260Y-108673210D01*
X149999701Y-108656947D01*
X149858780Y-108634493D01*
X149715659Y-108609657D01*
X149538577Y-108579822D01*
X149358292Y-108553007D01*
X149190111Y-108531248D01*
X149049340Y-108516578D01*
X148979075Y-108511776D01*
X148856793Y-108507560D01*
X148773861Y-108509324D01*
X148715952Y-108519217D01*
X148668741Y-108539385D01*
X148629287Y-108564197D01*
X148565137Y-108620025D01*
X148490200Y-108703162D01*
X148425913Y-108788302D01*
X148353357Y-108883911D01*
X148285973Y-108940266D01*
X148212571Y-108959169D01*
X148121959Y-108942424D01*
X148002947Y-108891831D01*
X147949677Y-108864999D01*
X147761071Y-108768044D01*
X147613900Y-108693497D01*
X147502053Y-108638563D01*
X147419419Y-108600446D01*
X147359886Y-108576352D01*
X147317343Y-108563485D01*
X147285678Y-108559049D01*
X147280516Y-108558929D01*
X147236883Y-108561785D01*
X147202983Y-108575048D01*
X147177296Y-108604924D01*
X147158299Y-108657625D01*
X147144470Y-108739358D01*
X147134289Y-108856333D01*
X147126233Y-109014759D01*
X147118857Y-109218514D01*
X147111366Y-109405312D01*
X147102233Y-109568949D01*
X147092039Y-109701927D01*
X147081367Y-109796749D01*
X147070803Y-109845915D01*
X147069903Y-109847797D01*
X147020819Y-109895275D01*
X146955462Y-109895567D01*
X146882216Y-109849316D01*
X146865039Y-109832059D01*
X146798381Y-109728361D01*
X146745314Y-109582155D01*
X146705846Y-109403001D01*
X146679983Y-109200462D01*
X146667734Y-108984099D01*
X146669103Y-108763475D01*
X146684100Y-108548151D01*
X146712731Y-108347688D01*
X146755002Y-108171649D01*
X146810921Y-108029595D01*
X146863652Y-107948960D01*
X146900649Y-107908915D01*
X146934163Y-107890269D01*
X146981481Y-107890050D01*
X147059888Y-107905288D01*
X147085157Y-107910894D01*
X147281623Y-107972927D01*
X147487803Y-108075098D01*
X147711013Y-108221075D01*
X147727334Y-108232933D01*
X147816026Y-108295189D01*
X147890419Y-108342704D01*
X147938485Y-108367974D01*
X147947249Y-108370182D01*
X147976022Y-108349161D01*
X148024409Y-108293223D01*
X148083458Y-108213058D01*
X148103051Y-108184172D01*
X148210438Y-108037259D01*
X148311954Y-107926595D01*
X148402791Y-107856690D01*
X148478138Y-107832049D01*
X148478807Y-107832047D01*
X148518893Y-107841558D01*
G37*
G36*
X153234729Y-111108051D02*
G01*
X153346852Y-111180041D01*
X153423084Y-111268967D01*
X153461650Y-111367972D01*
X153472149Y-111490169D01*
X153454804Y-111612974D01*
X153418839Y-111700142D01*
X153326742Y-111805654D01*
X153211483Y-111870486D01*
X153100541Y-111891828D01*
X153084212Y-111894969D01*
X152956079Y-111879434D01*
X152838236Y-111824210D01*
X152741832Y-111729627D01*
X152710901Y-111679180D01*
X152676558Y-111576862D01*
X152673106Y-111473480D01*
X152961279Y-111473480D01*
X152981873Y-111549284D01*
X153033415Y-111591503D01*
X153100541Y-111593742D01*
X153161158Y-111556714D01*
X153196438Y-111515761D01*
X153197445Y-111480729D01*
X153177280Y-111438952D01*
X153127000Y-111386547D01*
X153063957Y-111370561D01*
X153005032Y-111388294D01*
X152967102Y-111437050D01*
X152961279Y-111473480D01*
X152673106Y-111473480D01*
X152672336Y-111450409D01*
X152672826Y-111443418D01*
X152705615Y-111307261D01*
X152775460Y-111200253D01*
X152872827Y-111124612D01*
X152988183Y-111082553D01*
X153111995Y-111076294D01*
X153234729Y-111108051D01*
G37*
G36*
X153411916Y-110066963D02*
G01*
X153454595Y-110076530D01*
X153470282Y-110100919D01*
X153472407Y-110139303D01*
X153458168Y-110212591D01*
X153423545Y-110292985D01*
X153418839Y-110300989D01*
X153371481Y-110369678D01*
X153319418Y-110420246D01*
X153253821Y-110455385D01*
X153165856Y-110477786D01*
X153046694Y-110490138D01*
X152887502Y-110495132D01*
X152779658Y-110495717D01*
X152369330Y-110495818D01*
X152369330Y-110199843D01*
X152530770Y-110199843D01*
X152620243Y-110198419D01*
X152668549Y-110190636D01*
X152688325Y-110171229D01*
X152692207Y-110134934D01*
X152692211Y-110132576D01*
X152696052Y-110094051D01*
X152716356Y-110073991D01*
X152766290Y-110066411D01*
X152840198Y-110065309D01*
X152924954Y-110067055D01*
X152969085Y-110076284D01*
X152985761Y-110098982D01*
X152988186Y-110132576D01*
X152999175Y-110183635D01*
X153042619Y-110199517D01*
X153056029Y-110199843D01*
X153122401Y-110177589D01*
X153154522Y-110132576D01*
X153179026Y-110092875D01*
X153216528Y-110072751D01*
X153283563Y-110065823D01*
X153328839Y-110065309D01*
X153411916Y-110066963D01*
G37*
G36*
X153244671Y-111985988D02*
G01*
X153323512Y-112012604D01*
X153334829Y-112019567D01*
X153398595Y-112089382D01*
X153448086Y-112188675D01*
X153471847Y-112293187D01*
X153472508Y-112311161D01*
X153468778Y-112350172D01*
X153448804Y-112370484D01*
X153399405Y-112378164D01*
X153324520Y-112379292D01*
X153239765Y-112377546D01*
X153195633Y-112368317D01*
X153178957Y-112345620D01*
X153176533Y-112312025D01*
X153162658Y-112258144D01*
X153136685Y-112244758D01*
X153101003Y-112267718D01*
X153079955Y-112312025D01*
X153063704Y-112352858D01*
X153031311Y-112372756D01*
X152966870Y-112378992D01*
X152932792Y-112379292D01*
X152839521Y-112372089D01*
X152788181Y-112348534D01*
X152777599Y-112334775D01*
X152739160Y-112304897D01*
X152695894Y-112314959D01*
X152667829Y-112357172D01*
X152665304Y-112378448D01*
X152667785Y-112399449D01*
X152680561Y-112414245D01*
X152711634Y-112423921D01*
X152769003Y-112429560D01*
X152860669Y-112432246D01*
X152994632Y-112433061D01*
X153068906Y-112433106D01*
X153472508Y-112433106D01*
X153472508Y-112755987D01*
X152362135Y-112755987D01*
X152374780Y-112493382D01*
X152389066Y-112319942D01*
X152415282Y-112193454D01*
X152457215Y-112107674D01*
X152518650Y-112056361D01*
X152603374Y-112033271D01*
X152655597Y-112030360D01*
X152762922Y-112045792D01*
X152828713Y-112079501D01*
X152871092Y-112109972D01*
X152901031Y-112108893D01*
X152938758Y-112071960D01*
X152955166Y-112052594D01*
X153006810Y-112002950D01*
X153065829Y-111980543D01*
X153146031Y-111975691D01*
X153244671Y-111985988D01*
G37*
G36*
X145729367Y-107061213D02*
G01*
X145749606Y-107082873D01*
X145724799Y-107106636D01*
X145703175Y-107113923D01*
X145670014Y-107124149D01*
X145689121Y-107128364D01*
X145703175Y-107129349D01*
X145744609Y-107146858D01*
X145742519Y-107177821D01*
X145716628Y-107195371D01*
X145696800Y-107207528D01*
X145716628Y-107211066D01*
X145751406Y-107222952D01*
X145745895Y-107243680D01*
X145709677Y-107261869D01*
X145669541Y-107267004D01*
X145610886Y-107253350D01*
X145586545Y-107221795D01*
X145603748Y-107186454D01*
X145622455Y-107175073D01*
X145642242Y-107157402D01*
X145622455Y-107143681D01*
X145587753Y-107110569D01*
X145597315Y-107075934D01*
X145643910Y-107053890D01*
X145669541Y-107051750D01*
X145729367Y-107061213D01*
G37*
G36*
X153467251Y-107856512D02*
G01*
X153471260Y-107920158D01*
X153472508Y-107995175D01*
X153472508Y-108158303D01*
X153298204Y-108237336D01*
X153178867Y-108282269D01*
X153062284Y-108310343D01*
X152958904Y-108320934D01*
X152879172Y-108313419D01*
X152833536Y-108287177D01*
X152826745Y-108265434D01*
X152806660Y-108213522D01*
X152760846Y-108193849D01*
X152710962Y-108213159D01*
X152699647Y-108225873D01*
X152670977Y-108287040D01*
X152665304Y-108321511D01*
X152669174Y-108340273D01*
X152686062Y-108353502D01*
X152723888Y-108362151D01*
X152790572Y-108367176D01*
X152894032Y-108369532D01*
X153042189Y-108370175D01*
X153068906Y-108370182D01*
X153472508Y-108370182D01*
X153472508Y-108693063D01*
X152362276Y-108693063D01*
X152374782Y-108417269D01*
X152390091Y-108234046D01*
X152419817Y-108096494D01*
X152468010Y-107997477D01*
X152538724Y-107929862D01*
X152636011Y-107886513D01*
X152683092Y-107874410D01*
X152781349Y-107874198D01*
X152885825Y-107905641D01*
X152970099Y-107959969D01*
X152983265Y-107974072D01*
X153005080Y-107992767D01*
X153035982Y-107996765D01*
X153087124Y-107983862D01*
X153169658Y-107951855D01*
X153234537Y-107924427D01*
X153332540Y-107882986D01*
X153410046Y-107851166D01*
X153455096Y-107833834D01*
X153461438Y-107832047D01*
X153467251Y-107856512D01*
G37*
G36*
X153472508Y-109607894D02*
G01*
X153471813Y-109743278D01*
X153469906Y-109857077D01*
X153467051Y-109939663D01*
X153463511Y-109981408D01*
X153462170Y-109984589D01*
X153435136Y-109973353D01*
X153371523Y-109943286D01*
X153282772Y-109899853D01*
X153236800Y-109876962D01*
X153139431Y-109829109D01*
X153060959Y-109792192D01*
X153013246Y-109771717D01*
X153004976Y-109769335D01*
X152994960Y-109793400D01*
X152988954Y-109854285D01*
X152988186Y-109890415D01*
X152988186Y-110011496D01*
X152665304Y-110011496D01*
X152665304Y-109255717D01*
X152898982Y-109377992D01*
X152999075Y-109429944D01*
X153079580Y-109470930D01*
X153129833Y-109495566D01*
X153141143Y-109500267D01*
X153145984Y-109476047D01*
X153149055Y-109414127D01*
X153149626Y-109365733D01*
X153149626Y-109231199D01*
X153472508Y-109231199D01*
X153472508Y-109607894D01*
G37*
%TD*%
M02*
