M48
; DRILL file {KiCad 8.0.4} date 2024-09-25T00:09:01+0530
; FORMAT={-:-/ absolute / metric / decimal}
; #@! TF.CreationDate,2024-09-25T00:09:01+05:30
; #@! TF.GenerationSoftware,Kicad,Pcbnew,8.0.4
; #@! TF.FileFunction,Plated,1,2,PTH
FMAT,2
METRIC
; #@! TA.AperFunction,Plated,PTH,ViaDrill
T1C0.300
; #@! TA.AperFunction,Plated,PTH,ComponentDrill
T2C3.500
%
G90
G05
T1
X134.891Y-115.049
X134.891Y-116.749
X134.891Y-118.199
X135.091Y-111.849
X135.691Y-105.649
X135.691Y-108.549
X135.691Y-113.279
X135.991Y-116.999
X136.041Y-118.149
X136.091Y-114.999
X136.191Y-110.249
X136.991Y-107.249
X137.266Y-116.749
X137.491Y-108.549
X137.491Y-125.799
X137.541Y-124.199
X137.541Y-124.999
X137.591Y-105.749
X137.601Y-121.509
X137.601Y-122.319
X137.901Y-118.149
X138.031Y-123.079
X138.431Y-121.509
X138.431Y-122.349
X138.561Y-111.109
X139.041Y-112.599
X139.051Y-117.449
X139.127Y-110.544
X139.791Y-105.949
X140.191Y-108.349
X140.291Y-127.029
X140.625Y-118.002
X140.991Y-112.849
X141.041Y-126.419
X141.291Y-113.849
X141.491Y-110.849
X141.711Y-127.039
X141.791Y-105.939
X141.791Y-109.949
X142.091Y-114.749
X142.291Y-112.849
X142.291Y-113.849
X142.391Y-109.249
X142.501Y-110.929
X142.541Y-126.379
X142.591Y-111.884
X143.591Y-116.349
X143.591Y-117.149
X143.591Y-117.949
X143.591Y-118.749
X143.801Y-111.309
X144.321Y-110.609
X144.391Y-116.349
X144.391Y-117.149
X144.391Y-117.949
X144.391Y-118.749
X145.191Y-116.349
X145.191Y-117.149
X145.191Y-117.949
X145.191Y-118.749
X145.241Y-110.629
X145.511Y-111.889
X145.771Y-109.969
X145.991Y-116.349
X145.991Y-117.149
X145.991Y-117.949
X145.991Y-118.749
X147.055Y-127.872
X147.096Y-126.095
X147.291Y-112.849
X147.291Y-124.149
X147.571Y-125.399
X147.591Y-114.549
X147.681Y-111.239
X147.701Y-108.289
X147.701Y-109.089
X147.891Y-104.949
X148.091Y-124.149
X148.271Y-113.859
X148.291Y-112.849
X148.891Y-124.149
X149.271Y-117.299
X149.662Y-123.502
X149.891Y-122.299
X149.991Y-124.799
X150.091Y-106.349
X150.381Y-118.189
X150.971Y-114.862
X151.091Y-112.549
X151.386Y-113.449
X151.891Y-106.449
X152.211Y-116.189
X152.291Y-115.229
X154.791Y-105.849
X154.891Y-104.449
T2
X144.78Y-102.4
M30
